<svg xmlns="http://www.w3.org/2000/svg" width="20" height="20" viewBox="0 0 20 20">
  <g fill="none" fill-rule="evenodd">
    <path fill="#FFFFFF" fill-rule="nonzero" d="M7.05771779,7.47900874 L5.7228848,14.5444739 L10.070652,17.1460317 L14.4184193,14.5444739 L13.0835863,7.47900874 L10.070652,3.13968358 L7.05771779,7.47900874 Z M10.6045705,1.62928307 L14.2304755,6.8514284 C14.2825911,6.92648696 14.3182953,7.01169049 14.3352586,7.10147953 L15.7800057,14.7487361 C15.8305818,15.0164429 15.7088419,15.2872843 15.4750561,15.4271739 L10.4044041,18.4612816 C10.1988934,18.5842523 9.9424107,18.5842523 9.73690003,18.4612816 L4.66624799,15.4271739 C4.43246222,15.2872843 4.31072225,15.0164429 4.36129838,14.7487361 L5.80604549,7.10147953 C5.82300875,7.01169049 5.85871302,6.92648696 5.91082862,6.8514284 L9.53673355,1.62928307 C9.79528728,1.25690564 10.3460168,1.25690564 10.6045705,1.62928307 Z"/>
    <path fill="#FFFFFF" fill-rule="nonzero" d="M10.070652,15.8813911 L13.0810536,7.01320604 C13.1964476,6.67327293 13.5655631,6.491248 13.9054963,6.60664198 C14.2454294,6.72203596 14.4274543,7.0911515 14.3120603,7.43108461 L10.6861554,18.1124489 C10.4865249,18.7005299 9.65477915,18.7005299 9.45514869,18.1124489 L5.82924376,7.43108461 C5.71384978,7.0911515 5.89587471,6.72203596 6.23580782,6.60664198 C6.57574094,6.491248 6.94485648,6.67327293 7.06025046,7.01320604 L10.070652,15.8813911 Z"/>
    <rect width="19.9" height="19.9" x=".05" y=".05" stroke="#FFFFFF" stroke-opacity=".01" stroke-width=".1"/>
  </g>
</svg>
