<svg xmlns="http://www.w3.org/2000/svg" width="36" height="36" viewBox="0 0 36 36">
  <path fill="#000000" d="M33.8619079,35.0386146 C29.1900926,35.0386146 18.71744,35.0386146 18.71744,35.0386146 L18.2891903,35.0386146 C18.2891903,35.0386146 7.42721977,35.0386146 3.06685885,35.0386146 C1.35385991,35.0386146 0.730951208,34.6882284 1.00347377,32.8973659 C1.35385991,30.7561173 2.67754091,27.6415737 7.15469722,26.2789609 C12.0211715,24.565962 12.3326258,24.371303 12.3326258,24.371303 C12.3326258,24.371303 13.4616478,22.6583041 14.006693,22.5415087 C14.0845565,22.0743272 14.4738745,20.8674416 13.6952386,19.8941467 C12.7998073,18.6483293 11.9433079,15.494854 12.293694,13.4704007 C12.3326258,12.6917648 11.4761263,11.4848792 11.4761263,8.68179006 C11.4761263,7.86422239 10.03565,6.11229166 10.03565,6.11229166 C10.03565,6.11229166 12.488353,5.48938295 12.5662166,5.29472398 C12.9166027,4.24356554 11.9822397,3.42599787 11.9822397,3.42599787 C11.9822397,3.42599787 13.7731022,3.2702707 14.8242606,3.54279325 C15.1746468,3.34813428 13.2669889,2.25804405 13.6563068,2.10231688 C14.4738745,1.79086252 17.2380319,2.06338508 18.4059857,2.64736199 C18.2891903,1.9465897 17.8998724,0 18.0555995,0 C18.3670539,0.856499468 20.3915072,2.33590764 21.9487789,2.84202096 C23.5449825,3.38706608 24.0900276,4.59395169 24.4793455,5.02220142 C25.6083676,6.19015524 25.141186,6.26801883 25.530504,8.68179006 C25.530504,11.4848792 25.0633225,12.6917648 25.141186,13.4704007 C25.530504,13.5093325 25.530504,13.6261279 25.530504,15.6116494 C25.530504,17.5971709 24.5182773,18.1811478 24.0900276,18.1811478 C23.8564368,19.2323062 22.1045061,20.2445329 22.9999374,22.5415087 C23.5060507,22.6583041 24.6350727,24.371303 24.6350727,24.371303 C24.6350727,24.371303 24.9854589,24.565962 29.8130013,26.2789609 C34.2901576,27.6415737 35.6138386,30.7561173 35.9642248,32.8584341 C36.1588837,34.4546377 35.535975,35.0386146 33.8619079,35.0386146 Z" opacity=".2"/>
</svg>
