<svg xmlns="http://www.w3.org/2000/svg" width="4" height="16" viewBox="0 0 4 16">
  <path fill="#FFFFFF" fill-rule="evenodd" d="M1064,119 C1065.1,119 1066,118.1 1066,117 C1066,115.9 1065.1,115 1064,115 C1062.9,115 1062,115.9 1062,117 C1062,118.1 1062.9,119 1064,119 L1064,119 Z M1064,121 C1062.9,121 1062,121.9 1062,123 C1062,124.1 1062.9,125 1064,125 C1065.1,125 1066,124.1 1066,123 C1066,121.9 1065.1,121 1064,121 L1064,121 Z M1064,127 C1062.9,127 1062,127.9 1062,129 C1062,130.1 1062.9,131 1064,131 C1065.1,131 1066,130.1 1066,129 C1066,127.9 1065.1,127 1064,127 L1064,127 Z" transform="translate(-1062 -115)"/>
</svg>
