<svg xmlns="http://www.w3.org/2000/svg" width="56" height="41" viewBox="0 0 56 41">
  <g fill="#FFFFFF" fill-rule="evenodd">
    <path d="M17 .454884565L38.9407198.454884565 38.9407198 22.3956044 17 22.3956044 17 .454884565zM24.3135733 7.76845784L24.3135733 15.0820311 31.6271466 15.0820311 31.6271466 7.76845784 24.3135733 7.76845784zM19.4378578 2.89274232L19.4378578 5.33060008 21.8757155 5.33060008 21.8757155 2.89274232 19.4378578 2.89274232zM19.4378578 10.2063156L19.4378578 12.6441734 21.8757155 12.6441734 21.8757155 10.2063156 19.4378578 10.2063156zM19.4378578 17.5198889L19.4378578 19.9577466 21.8757155 19.9577466 21.8757155 17.5198889 19.4378578 17.5198889zM26.751431 2.89274232L26.751431 5.33060008 29.1892888 5.33060008 29.1892888 2.89274232 26.751431 2.89274232zM26.751431 17.5198889L26.751431 19.9577466 29.1892888 19.9577466 29.1892888 17.5198889 26.751431 17.5198889zM34.0650043 2.89274232L34.0650043 5.33060008 36.5028621 5.33060008 36.5028621 2.89274232 34.0650043 2.89274232zM34.0650043 10.2063156L34.0650043 12.6441734 36.5028621 12.6441734 36.5028621 10.2063156 34.0650043 10.2063156zM34.0650043 17.5198889L34.0650043 19.9577466 36.5028621 19.9577466 36.5028621 17.5198889 34.0650043 17.5198889zM31.5730016 39.505313C30.7745202 40.1202073 29.7744208 40.4858353 28.688984 40.4858353 26.07495 40.4858353 23.9558567 38.3652647 23.9558567 35.7494084 23.9558567 33.133552 26.07495 31.0129814 28.688984 31.0129814 29.7744208 31.0129814 30.7745202 31.3786094 31.5730016 31.9935037L31.5730016 31.299761 33.6657581 31.299761 33.6657581 40.2980322 31.5730016 40.2982171 31.5730016 39.505313zM4.1909946 40.4858353C2.97065022 40.4858353 2.14536162 40.2546361 1.38485715 39.6583758.624352677 39.0621155.171892328 38.0250034.171892328 37.3499678L2.45340575 37.3499678C2.68696253 38.1166449 3.24639427 38.6198491 4.29879921 38.6198491 5.03074438 38.6198491 5.67915185 38.3250024 5.67915185 37.6466103 5.67915185 37.0353816 5.12911198 36.8461999 4.72233052 36.7610198 4.22455111 36.7169003 3.55777024 36.6060621 2.7219879 36.4285051 1.4683144 36.1621697.395147368 35.5091256.375132196 33.9354131.34922953 31.8987906 1.88473658 31.0129814 4.00515179 31.0129814 6.31983889 31.0129814 7.6631552 32.1606651 7.6631552 33.9354131L5.33835405 33.9354131C5.33835405 33.32615 4.7477693 32.8490732 3.89967716 32.8490732 3.21349433 32.8490732 2.51471388 33.1696367 2.51471388 33.7276215 2.51471388 34.3513599 3.27183305 34.587755 3.94772081 34.6666846 4.39831265 34.7193043 5.00487077 34.8275881 5.76739515 34.9915358 7.09644449 35.2307686 7.8580198 36.2125594 7.8580198 37.49026 7.8580198 39.3131128 6.54325262 40.4858353 4.1909946 40.4858353zM14.9968064 40.2982171L14.9968064 35.4066619C14.9968064 34.069691 14.2257555 33.1797243 13.1140052 33.1797243 12.0022549 33.1797243 11.2402229 33.9354131 11.2402229 35.406477L11.2402229 40.2980322 9.1444364 40.2980322 9.1444364 31.299761 10.8815293 31.299761 11.0030253 32.3100366C11.4933079 31.4886934 12.4752832 31.0807361 13.5148395 31.0807361 14.5323391 31.0807361 15.7241421 31.531226 16.2325834 32.7723668 17.0315624 31.5677301 18.1177583 31.0807361 19.2799097 31.0807361 21.0907277 31.0807361 22.8118263 32.0232947 22.8118263 35.3152167L22.8118263 40.2980322 20.7108798 40.2980322 20.7108798 35.3152167C20.7108798 33.9354131 20.0884999 33.1797243 18.9787827 33.1797243 17.8690656 33.1797243 17.0795316 34.1258687 17.0795316 35.4068469L17.0795316 40.298402 14.9968064 40.2982171zM28.8073121 38.4728538C30.3103817 38.4728538 31.5288603 37.2535258 31.5288603 35.7494084 31.5288603 34.2452909 30.3103817 33.0259629 28.8073121 33.0259629 27.3042426 33.0259629 26.085764 34.2452909 26.085764 35.7494084 26.085764 37.2535258 27.3042426 38.4728538 28.8073121 38.4728538zM37.2961744 31.299761L37.2961744 32.4602745C37.9498846 31.3651502 38.9544255 31.0807361 40.2235148 31.0807361 40.2235148 31.299761 40.2235148 33.0179206 40.2235148 33.2401142 39.0613634 33.2401142 37.7905292 33.8345658 37.4157389 34.8620204L37.4157389 40.2980322 35.2003879 40.2980322 35.2003879 31.299761 37.2961744 31.299761zM46.9799838 40.2982171L46.0062899 40.2980322C43.6819872 40.2980322 42.6394003 39.2126388 42.6394003 36.66587L42.6394003 33.2401142 41.1091323 33.2401142 41.1091323 31.299761 42.7175145 31.299761 42.7175145 29 44.8191086 29 44.8191086 31.299761 46.9799838 31.299761 46.9799838 33.2401142 44.8191086 33.2401142 44.8191086 36.66587C44.8191086 37.8340025 45.273074 38.2355481 46.1991633 38.2355481L46.9799838 38.235733 46.9799838 40.2982171zM55.440367 40.2982171L48.1052238 40.2982171 48.1052238 38.6021821 52.4199868 33.2401142 48.1052238 33.2403099 48.1052238 31.299761 55.440367 31.299761 55.440367 32.8357439 51.0106217 38.3576681 55.440367 38.3576681 55.440367 40.2982171z"/>
  </g>
</svg>
