<svg xmlns="http://www.w3.org/2000/svg" width="107" height="19" viewBox="0 0 107 19" xmlns:xlink="http://www.w3.org/1999/xlink">
  <defs>
    <linearGradient id="a" x1="0%" x2="94.695%" y1="73.09%" y2="73.09%">
      <stop stop-color="#27D0B2" offset="0%"/>
      <stop stop-color="#5FB2E7" offset="28.847%"/>
      <stop stop-color="#496EFF" offset="100%"/>
    </linearGradient>
    <path id="b" d="M121.746063,45.5171562 C120.566645,46.4254025 119.089421,46.9654631 117.486147,46.9654631 C113.625018,46.9654631 110.494954,43.8332171 110.494954,39.9693958 C110.494954,36.1055746 113.625018,32.9733286 117.486147,32.9733286 C119.089421,32.9733286 120.566645,33.5133892 121.746063,34.4216355 L121.746063,33.3969241 L124.837226,33.3969241 L124.837226,46.6880635 L121.746063,46.6883366 L121.746063,45.5171562 Z M50,30.6718995 L67.6373626,30.6718995 L67.6373626,48.3092622 L50,48.3092622 L50,30.6718995 Z M55.8791209,36.5510204 L55.8791209,42.4301413 L61.7582418,42.4301413 L61.7582418,36.5510204 L55.8791209,36.5510204 Z M51.959707,32.6316065 L51.959707,34.5913134 L53.9194139,34.5913134 L53.9194139,32.6316065 L51.959707,32.6316065 Z M51.959707,38.5107274 L51.959707,40.4704343 L53.9194139,40.4704343 L53.9194139,38.5107274 L51.959707,38.5107274 Z M51.959707,44.3898482 L51.959707,46.3495552 L53.9194139,46.3495552 L53.9194139,44.3898482 L51.959707,44.3898482 Z M57.8388278,32.6316065 L57.8388278,34.5913134 L59.7985348,34.5913134 L59.7985348,32.6316065 L57.8388278,32.6316065 Z M57.8388278,44.3898482 L57.8388278,46.3495552 L59.7985348,46.3495552 L59.7985348,44.3898482 L57.8388278,44.3898482 Z M63.7179487,32.6316065 L63.7179487,34.5913134 L65.6776557,34.5913134 L65.6776557,32.6316065 L63.7179487,32.6316065 Z M63.7179487,38.5107274 L63.7179487,40.4704343 L65.6776557,40.4704343 L65.6776557,38.5107274 L63.7179487,38.5107274 Z M63.7179487,44.3898482 L63.7179487,46.3495552 L65.6776557,46.3495552 L65.6776557,44.3898482 L63.7179487,44.3898482 Z M81.3007308,46.9654631 C79.4981881,46.9654631 78.2791733,46.6239641 77.1558497,45.7432418 C76.032526,44.8625194 75.3642072,43.330625 75.3642072,42.3335453 L78.7341782,42.3335453 C79.0791596,43.4659865 79.9054833,44.2092579 81.4599665,44.2092579 C82.5411058,44.2092579 83.4988536,43.7737466 83.4988536,42.7717092 C83.4988536,41.8688774 82.6864024,41.5894414 82.0855548,41.4636239 C81.3502963,41.398456 80.3654096,41.2347394 79.1308947,40.9724741 C77.2791224,40.5790761 75.6939721,39.6144797 75.6644082,37.2899852 C75.6261479,34.281737 77.8942101,32.9733286 81.0262266,32.9733286 C84.4451977,32.9733286 86.4293793,34.6685457 86.4293793,37.2899852 L82.995469,37.2899852 C82.995469,36.3900566 82.1231299,35.6853775 80.8704325,35.6853775 C79.8568876,35.6853775 78.8247351,36.1588744 78.8247351,36.9830609 C78.8247351,37.9043706 79.9430584,38.2535444 80.9413966,38.3701295 C81.6069555,38.4478529 82.5028885,38.6077963 83.6291958,38.8499597 C85.592304,39.203325 86.7172093,40.6535056 86.7172093,42.5407677 C86.7172093,45.2332617 84.775197,46.9654631 81.3007308,46.9654631 Z M97.2617469,46.6883366 L97.2617469,39.463133 C97.2617469,37.488324 96.1228452,36.1737747 94.4807045,36.1737747 C92.8385638,36.1737747 91.7129837,37.2899852 91.7129837,39.4628599 L91.7129837,46.6880635 L88.6173457,46.6880635 L88.6173457,33.3969241 L91.1831657,33.3969241 L91.3626247,34.889179 C92.0868098,33.6759918 93.5372628,33.0734075 95.0727676,33.0734075 C96.5756929,33.0734075 98.3360777,33.7388157 99.0870846,35.5720763 C100.267238,33.7927351 101.871633,33.0734075 103.58822,33.0734075 C106.262938,33.0734075 108.805133,34.465639 108.805133,39.3280613 L108.805133,46.6880635 L105.701873,46.6880635 L105.701873,39.3280613 C105.701873,37.2899852 104.78257,36.1737747 103.143432,36.1737747 C101.504295,36.1737747 100.338092,37.5713028 100.338092,39.4634061 L100.338092,46.6886097 L97.2617469,46.6883366 Z M117.660927,43.9921345 C119.881077,43.9921345 121.680863,42.1910931 121.680863,39.9693958 C121.680863,37.7476986 119.881077,35.9466572 117.660927,35.9466572 C115.440778,35.9466572 113.640991,37.7476986 113.640991,39.9693958 C113.640991,42.1910931 115.440778,43.9921345 117.660927,43.9921345 Z M130.19963,33.3969241 L130.19963,35.1110918 C131.165211,33.4935089 132.648995,33.0734075 134.523538,33.0734075 C134.523538,33.3969241 134.523538,35.9347781 134.523538,36.2629752 C132.806951,36.2629752 130.929831,37.1410259 130.376236,38.6586555 L130.376236,46.6880635 L127.103992,46.6880635 L127.103992,33.3969241 L130.19963,33.3969241 Z M144.503363,46.6883366 L143.065142,46.6880635 C139.631968,46.6880635 138.091987,45.0848538 138.091987,41.3230802 L138.091987,36.2629752 L135.831663,36.2629752 L135.831663,33.3969241 L138.207367,33.3969241 L138.207367,30 L141.311584,30 L141.311584,33.3969241 L144.503363,33.3969241 L144.503363,36.2629752 L141.311584,36.2629752 L141.311584,41.3230802 C141.311584,43.048502 141.982125,43.6416157 143.350031,43.6416157 L144.503363,43.6418888 L144.503363,46.6883366 Z M157,46.6883366 L146.165429,46.6883366 L146.165429,44.1831624 L152.538666,36.2629752 L146.165429,36.2632643 L146.165429,33.3969241 L157,33.3969241 L157,35.6656891 L150.456925,43.8219964 L157,43.8219964 L157,46.6883366 Z"/>
  </defs>
  <g fill="none" fill-rule="evenodd" transform="translate(-50 -30)">
    <use fill="url(#a)" xlink:href="#b"/>
    <use fill="#000000" xlink:href="#b"/>
  </g>
</svg>
