<svg xmlns="http://www.w3.org/2000/svg" width="13" height="13" viewBox="0 0 13 13">
  <g fill="#000000" fill-rule="evenodd" opacity=".5">
    <path fill-rule="nonzero" d="M5,9.9 C2.29380473,9.9 0.1,7.70619527 0.1,5 C0.1,2.29380473 2.29380473,0.1 5,0.1 C7.70619527,0.1 9.9,2.29380473 9.9,5 C9.9,7.70619527 7.70619527,9.9 5,9.9 Z M5,8.1 C6.71208272,8.1 8.1,6.71208272 8.1,5 C8.1,3.28791728 6.71208272,1.9 5,1.9 C3.28791728,1.9 1.9,3.28791728 1.9,5 C1.9,6.71208272 3.28791728,8.1 5,8.1 Z"/>
    <rect width="2" height="6" x="8.939" y="6.439" transform="rotate(-45 9.94 9.44)"/>
  </g>
</svg>
