<svg xmlns="http://www.w3.org/2000/svg" width="17" height="15" viewBox="0 0 17 15">
  <path fill="#7F7F7F" d="M440.300279,7.08824664 L444.217438,8.54834982 L445.733615,13.418289 C445.830649,13.7300479 446.212527,13.8453405 446.465906,13.6383636 L448.649452,11.8606803 C448.878276,11.6742934 449.20435,11.6651303 449.443429,11.8384734 L453.381743,14.6941612 C453.652825,14.8908971 454.037023,14.7426175 454.104968,14.4153893 L456.98999,0.555701103 C457.064196,0.198234813 456.712648,-0.0999412303 456.37184,0.0317370187 L440.295745,6.22568134 C439.898973,6.37838068 439.902373,6.93937422 440.300279,7.08824664 Z M445.489248,7.77116248 L453.144824,3.06206155 C453.282334,2.9777077 453.423946,3.16350178 453.305702,3.27297313 L446.987723,9.13844948 C446.765591,9.34483345 446.62236,9.6212338 446.581776,9.92118855 L446.366659,11.5141019 C446.338002,11.7267383 446.03902,11.7477594 445.98014,11.5419683 L445.152433,8.6372313 C445.057719,8.30596051 445.195824,7.95199774 445.489248,7.77116248 Z" transform="translate(-440)"/>
</svg>
