<svg xmlns="http://www.w3.org/2000/svg" width="15" height="14" viewBox="0 0 15 15">
  <path fill="#000000" d="M13.1892725,14.0380997 C11.3175258,14.0380997 7.1216938,14.0380997 7.1216938,14.0380997 L6.95011702,14.0380997 C6.95011702,14.0380997 2.59830611,14.0380997 0.851342585,14.0380997 C0.165035487,14.0380997 -0.0845307305,13.8977187 0.0246544896,13.1802159 C0.165035487,12.322332 0.695363699,11.0745009 2.48912089,10.5285748 C4.43885696,9.8422677 4.56364007,9.76427826 4.56364007,9.76427826 C4.56364007,9.76427826 5.01597884,9.07797116 5.23434928,9.03117749 C5.26554505,8.84400283 5.42152394,8.36046828 5.10956617,7.97052107 C4.75081473,7.47138863 4.40766118,6.20795966 4.54804218,5.39686945 C4.56364007,5.08491168 4.22048652,4.60137713 4.22048652,3.47832915 C4.22048652,3.15077349 3.64336464,2.44886851 3.64336464,2.44886851 C3.64336464,2.44886851 4.62603162,2.19930229 4.6572274,2.12131285 C4.7976084,1.70016986 4.42325907,1.3726142 4.42325907,1.3726142 C4.42325907,1.3726142 5.14076195,1.31022264 5.56190494,1.41940786 C5.70228594,1.34141842 4.93798939,0.904677538 5.09396828,0.842285984 C5.42152394,0.717502875 6.52897403,0.826688095 6.99691069,1.06065642 C6.95011702,0.779894429 6.79413814,0 6.85652969,0 C6.9813128,0.343153549 7.79240301,0.935873315 8.41631855,1.13864587 C9.05583198,1.35701631 9.27420242,1.84055085 9.43018131,2.01212763 C9.88252008,2.48006429 9.69534541,2.51126006 9.8513243,3.47832915 C9.8513243,4.60137713 9.66414964,5.08491168 9.69534541,5.39686945 C9.8513243,5.41246734 9.8513243,5.45926101 9.8513243,6.25475332 C9.8513243,7.05024564 9.4457792,7.28421397 9.27420242,7.28421397 C9.18061509,7.70535696 8.4787101,8.11090207 8.83746154,9.03117749 C9.04023409,9.07797116 9.49257286,9.76427826 9.49257286,9.76427826 C9.49257286,9.76427826 9.63295386,9.8422677 11.567092,10.5285748 C13.3608492,11.0745009 13.8911774,12.322332 14.0315584,13.164618 C14.1095479,13.8041314 13.8599817,14.0380997 13.1892725,14.0380997 Z" opacity=".2"/>
</svg>
