<svg xmlns="http://www.w3.org/2000/svg" width="30" height="30" viewBox="0 0 30 30">
  <path fill="#171718" fill-rule="evenodd" d="M39.2333333,13.7166667 L36.9166667,10.9166667 C36.4666667,10.35 35.7833333,10 35,10 L15,10 C14.2166667,10 13.5333333,10.35 13.0666667,10.9166667 L10.7666667,13.7166667 C10.2833333,14.2833333 10,15.0333333 10,15.8333333 L10,36.6666667 C10,38.5 11.5,40 13.3333333,40 L36.6666667,40 C38.5,40 40,38.5 40,36.6666667 L40,15.8333333 C40,15.0333333 39.7166667,14.2833333 39.2333333,13.7166667 L39.2333333,13.7166667 Z M25,34.1666667 L15.8333333,25 L21.6666667,25 L21.6666667,21.6666667 L28.3333333,21.6666667 L28.3333333,25 L34.1666667,25 L25,34.1666667 L25,34.1666667 Z M13.5333333,13.3333333 L14.8833333,11.6666667 L34.8833333,11.6666667 L36.45,13.3333333 L13.5333333,13.3333333 L13.5333333,13.3333333 Z" transform="translate(-10 -10)"/>
</svg>
