<svg width="14" height="15" viewBox="0 0 14 15">
    <path fill="#7F7F7F" d="M505.457808,81.7545268 L502.83388,79.1298567 L509.88944,72.0762917 L512.513368,74.7009619 L505.457808,81.7545268 Z M514.609738,72.6275734 L513.396537,73.925123 L510.739544,71.2681304 L511.994919,70.0127553 C512.37449,69.5910104 513.091456,69.5910104 513.513201,70.0127553 L514.609738,71.1092919 C515.031482,71.5310368 515.031482,72.2058286 514.609738,72.6275734 Z M501.123761,83.0348121 L502.262473,79.8717256 L504.708593,82.3178458 L501.545506,83.4565569 C501.503332,83.4565569 501.461157,83.4565569 501.418983,83.4565569 C501.334634,83.4565569 501.250285,83.4143825 501.20811,83.372208 C501.123761,83.287859 501.081587,83.1613355 501.123761,83.0348121 Z" transform="translate(-501 -69)"/>
</svg>
