<svg xmlns="http://www.w3.org/2000/svg" width="20" height="19" viewBox="0 0 20 19">
  <path fill="#247F92" fill-rule="evenodd" d="M221.5,15 C219.76,15 218.09,15.81 217,17.09 C215.91,15.81 214.24,15 212.5,15 C209.42,15 207,17.42 207,20.5 C207,24.28 210.4,27.36 215.55,32.04 L217,33.35 L218.45,32.03 C223.6,27.36 227,24.28 227,20.5 C227,17.42 224.58,15 221.5,15 L221.5,15 Z M217.1,30.55 L217,30.65 L216.9,30.55 C212.14,26.24 209,23.39 209,20.5 C209,18.5 210.5,17 212.5,17 C214.04,17 215.54,17.99 216.07,19.36 L217.94,19.36 C218.46,17.99 219.96,17 221.5,17 C223.5,17 225,18.5 225,20.5 C225,23.39 221.86,26.24 217.1,30.55 L217.1,30.55 Z" transform="translate(-207 -15)" opacity=".2"/>
</svg>
