<svg xmlns="http://www.w3.org/2000/svg" width="10" height="10" viewBox="0 0 10 10">
  <path fill="#000000" d="M9.43595795,10.040674 C8.23053474,10.040674 5.52837772,10.040674 5.52837772,10.040674 L5.4178806,10.040674 C5.4178806,10.040674 2.61527165,10.040674 1.49020999,10.040674 C1.04822148,10.040674 0.887498386,9.95026729 0.95781474,9.4881884 C1.04822148,8.93570276 1.38975805,8.13208729 2.54495529,7.78050553 C3.80060446,7.33851702 3.88096601,7.28829105 3.88096601,7.28829105 C3.88096601,7.28829105 4.17227662,6.84630254 4.31290933,6.81616696 C4.33299971,6.69562464 4.43345165,6.38422365 4.23254778,6.13309381 C4.00150833,5.81164763 3.78051408,4.99798696 3.87092082,4.47563691 C3.88096601,4.27473304 3.65997176,3.96333204 3.65997176,3.24007812 C3.65997176,3.02912906 3.2882996,2.57709536 3.2882996,2.57709536 C3.2882996,2.57709536 3.92114678,2.41637227 3.94123717,2.3661463 C4.03164391,2.09492608 3.79055927,1.88397702 3.79055927,1.88397702 C3.79055927,1.88397702 4.25263817,1.84379624 4.52385839,1.9141126 C4.61426513,1.86388663 4.12205065,1.58262122 4.22250259,1.54244044 C4.43345165,1.4620789 5.14666038,1.53239525 5.44801618,1.68307315 C5.4178806,1.50225967 5.31742866,1 5.35760944,1 C5.43797098,1.22099425 5.96032104,1.6027116 6.36212877,1.73329912 C6.7739817,1.87393182 6.91461441,2.18533282 7.01506634,2.29582994 C7.30637695,2.59718575 7.18583463,2.61727613 7.28628656,3.24007812 C7.28628656,3.96333204 7.16574424,4.27473304 7.18583463,4.47563691 C7.28628656,4.4856821 7.28628656,4.51581768 7.28628656,5.02812254 C7.28628656,5.5404274 7.02511154,5.6911053 6.91461441,5.6911053 C6.85434325,5.96232553 6.40230955,6.22350055 6.63334899,6.81616696 C6.76393651,6.84630254 7.05524712,7.28829105 7.05524712,7.28829105 C7.05524712,7.28829105 7.14565386,7.33851702 8.39125783,7.78050553 C9.54645507,8.13208729 9.88799165,8.93570276 9.97839839,9.47814321 C10.0286244,9.88999613 9.86790126,10.040674 9.43595795,10.040674 Z" transform="translate(0 -1)" opacity=".45"/>
</svg>
