<svg xmlns="http://www.w3.org/2000/svg" width="12" height="12" viewBox="0 0 12 12">
    <path fill="#000000" fill-rule="evenodd" d="M263.4,262.6 L264.6,262.6 L264.6,261.4 L263.4,261.4 L263.4,262.6 L263.4,262.6 Z M264,253 C260.688,253 258,255.688 258,259 C258,262.312 260.688,265 264,265 C267.312,265 270,262.312 270,259 C270,255.688 267.312,253 264,253 L264,253 Z M264,263.8 C261.354,263.8 259.2,261.646 259.2,259 C259.2,256.354 261.354,254.2 264,254.2 C266.646,254.2 268.8,256.354 268.8,259 C268.8,261.646 266.646,263.8 264,263.8 L264,263.8 Z M264,255.4 C262.674,255.4 261.6,256.474 261.6,257.8 L262.8,257.8 C262.8,257.14 263.34,256.6 264,256.6 C264.66,256.6 265.2,257.14 265.2,257.8 C265.2,259 263.4,258.85 263.4,260.8 L264.6,260.8 C264.6,259.45 266.4,259.3 266.4,257.8 C266.4,256.474 265.326,255.4 264,255.4 L264,255.4 Z" opacity=".2" transform="translate(-258 -253)"/>
</svg>
