<svg xmlns="http://www.w3.org/2000/svg" width="17" height="17" viewBox="0 0 17 17">
  <path fill="#CED6E0" d="M1.20246818,8.29468733 L3.46612689,9.2340882 C3.26898077,9.75386702 3.10479938,10.2855576 2.97455958,10.8259966 C2.93453691,10.989195 2.98224222,11.1614641 3.10051277,11.2808275 L5.51636491,13.7001784 C5.63572829,13.8184489 5.80799745,13.8661542 5.97119587,13.8261315 C6.51167444,13.6953197 7.04336572,13.5305538 7.56310423,13.3328149 L8.5025051,15.5964736 C8.54913609,15.7094243 8.64911299,15.7916115 8.76895135,15.8155089 C8.8887897,15.8394063 9.01264426,15.8018541 9.0990334,15.7154294 L10.3550666,14.4593962 C10.8450381,13.9683478 11.1037865,13.2925502 11.067052,12.5998373 L11.0058247,11.4102794 C13.6333482,9.41427123 16.0666939,6.03277797 16.7944234,0.4680961 C16.8136146,0.340219446 16.7709896,0.210822285 16.6795546,0.119387226 C16.5881195,0.0279521664 16.4587223,-0.0146727919 16.3308457,0.0045183897 C10.7661638,0.728749227 7.38467055,3.15334812 5.37991562,5.78611964 L4.19910447,5.7318898 C3.50725162,5.69519933 2.83222852,5.95325901 2.34129493,6.44212584 L1.08351239,7.70165773 C0.998676892,7.78809056 0.962147983,7.91092492 0.985967019,8.02966982 C1.00978605,8.14841472 1.09086167,8.24765879 1.20246818,8.29468733 Z M10.4967639,4.15047753 C11.0900527,3.56093465 12.0486179,3.56295843 12.6394121,4.15500123 C13.2302062,4.74704402 13.2302062,5.70561136 12.6394121,6.29765415 C12.0486179,6.88969695 11.0900527,6.89172073 10.4967639,6.30217785 C10.2102499,6.01747282 10.0491351,5.63024258 10.0491351,5.22632769 C10.0491351,4.8224128 10.2102499,4.43518256 10.4967639,4.15047753 Z M0.000664835481,16.3626888 C0.130116724,13.9800743 1.28643697,12.6680619 1.94944057,12.1047713 C2.01474835,12.0540367 2.10431044,12.0480091 2.1758275,12.0895351 C2.24734456,12.1310611 2.28650735,12.2118323 2.27481964,12.2937011 C2.21083024,12.6522845 2.20021937,13.0183595 2.24333134,13.3800473 C2.31767215,13.9910296 2.79916538,14.4725229 3.41014769,14.5468637 C3.77428108,14.5937354 4.14336716,14.5860706 4.5052407,14.5241221 C4.58975586,14.5092058 4.67451633,14.5490693 4.7169264,14.6236796 C4.75933647,14.6982899 4.75022484,14.7915123 4.69417048,14.8564986 C4.13087983,15.5107555 2.81886744,16.6670757 0.436252948,16.7982769 C0.318810033,16.8049459 0.204099255,16.7611994 0.120920794,16.678021 C0.0377423329,16.5948425 -0.0060040925,16.4801317 0.000664835481,16.3626888 Z"/>
</svg>
