<svg xmlns="http://www.w3.org/2000/svg" width="69" height="58" viewBox="0 0 69 58">
  <defs>
    <linearGradient id="aqwd" x1="79.213%" x2="74.706%" y1="27.204%" y2="80.24%">
      <stop stop-color="#FFFFFF" offset="0%"/>
      <stop stop-color="#E2EFF7" offset="100%"/>
    </linearGradient>
  </defs>
  <g fill="none" fill-rule="evenodd">
    <path fill="#C6D8E8" d="M25.7927846,54.0279531 C23.7535703,54.0279531 24.1000836,53.2579761 23.396776,51.3163268 L17.4000929,31.5805975 L63.5598974,4.19634587"/>
    <path fill="#A0BDD3" d="M25.7927846,54.0279531 C27.3664143,54.0279531 28.0616964,53.3082798 28.940044,52.4543234 L37.3327358,44.2934797 L26.8639019,37.9806019"/>
    <path fill="url(#aqwd)" d="M26.8628528,37.9821756 L52.2297636,56.7235808 C55.1244554,58.3207625 57.2136587,57.49382 57.9346958,54.0360835 L68.2603294,5.3778795 C69.3174938,1.13946527 66.6446837,-0.782880776 63.8754627,0.474344446 L3.24351026,23.8537609 C-0.895188313,25.5137829 -0.871059324,27.8227698 2.48911218,28.8516089 L18.0486381,33.7079875 L54.0705956,10.9821519 C55.7711123,9.95095233 57.3318383,10.5053473 56.0508512,11.6422371"/>
  </g>
</svg>
