<svg xmlns="http://www.w3.org/2000/svg" width="13" height="3" viewBox="0 0 13 3">
    <path fill-rule="evenodd" d="M1.625,0 C0.73125,0 0,0.675 0,1.5 C0,2.325 0.73125,3 1.625,3 C2.51875,3 3.25,2.325 3.25,1.5 C3.25,0.675 2.51875,0 1.625,0 L1.625,0 Z M11.375,0 C10.48125,0 9.75,0.675 9.75,1.5 C9.75,2.325 10.48125,3 11.375,3 C12.26875,3 13,2.325 13,1.5 C13,0.675 12.26875,0 11.375,0 L11.375,0 Z M6.5,0 C5.60625,0 4.875,0.675 4.875,1.5 C4.875,2.325 5.60625,3 6.5,3 C7.39375,3 8.125,2.325 8.125,1.5 C8.125,0.675 7.39375,0 6.5,0 L6.5,0 Z"/>
</svg>
