<svg xmlns="http://www.w3.org/2000/svg" width="147" height="46" viewBox="0 0 147 46">
    <g fill="none">
        <path fill="#000000" d="M141.867209,45.6899225 L4.79744186,45.6899225 C2.28449612,45.6899225 0.228449612,43.633876 0.228449612,41.1209302 L0.228449612,4.56899225 C0.228449612,2.05604651 2.28449612,0 4.79744186,0 L141.867209,0 C144.380155,0 146.436202,2.05604651 146.436202,4.56899225 L146.436202,41.1209302 C146.436202,43.633876 144.380155,45.6899225 141.867209,45.6899225 Z"/>
        <path fill="#FFFFFF" d="M31.0691473 22.6165116C31.0691473 19.0755426 34.0389922 17.3621705 34.1532171 17.2479457 32.439845 14.8492248 29.9268992 14.5065504 29.0131008 14.3923256 26.8428295 14.163876 24.6725581 15.6487984 23.6445349 15.6487984 22.5022868 15.6487984 20.7889147 14.3923256 18.9613178 14.3923256 16.5625969 14.3923256 14.3923256 15.7630233 13.1358527 17.9332946 10.622907 22.2738372 12.4505039 28.6704264 14.8492248 32.2113953 16.1056977 33.9247674 17.4763953 35.8665891 19.3039922 35.7523643 21.1315891 35.6381395 21.816938 34.6101163 23.9872093 34.6101163 26.1574806 34.6101163 26.7286047 35.7523643 28.6704264 35.7523643 30.6122481 35.7523643 31.8687209 34.0389922 33.010969 32.3256202 34.3816667 30.3837984 34.9527907 28.4419767 34.9527907 28.3277519 34.8385659 28.2135271 31.0691473 26.8428295 31.0691473 22.6165116zM27.5281783 12.1078295C28.4419767 10.8513566 29.1273256 9.2522093 29.0131008 7.53883721 27.6424031 7.65306202 25.8148062 8.45263566 24.9010078 9.70910853 23.9872093 10.7371318 23.1876357 12.4505039 23.4160853 14.0496512 24.9010078 14.163876 26.500155 13.2500775 27.5281783 12.1078295zM57.1124031 35.5239147L54.5994574 35.5239147 53.2287597 31.1833721 48.4313178 31.1833721 47.174845 35.5239147 44.776124 35.5239147 49.5735659 20.7889147 52.5434109 20.7889147 57.1124031 35.5239147zM52.7718605 29.3557752L51.5153876 25.4721318C51.4011628 25.1294574 51.1727132 24.1014341 50.715814 22.7307364 50.6015891 23.3018605 50.3731395 24.3298837 50.0304651 25.4721318L48.7739922 29.3557752 52.7718605 29.3557752zM69.3344574 30.1553488C69.3344574 31.9829457 68.8775581 33.3536434 67.8495349 34.4958915 66.9357364 35.4096899 65.9077132 35.8665891 64.5370155 35.8665891 63.1663178 35.8665891 62.1382946 35.4096899 61.5671705 34.3816667L61.5671705 39.9786822 59.1684496 39.9786822 59.1684496 28.5562016C59.1684496 27.4139535 59.1684496 26.2717054 59.0542248 25.0152326L61.1102713 25.0152326 61.2244961 26.7286047C62.0240698 25.4721318 63.1663178 24.7867829 64.7654651 24.7867829 66.021938 24.7867829 67.0499612 25.2436822 67.8495349 26.2717054 68.8775581 27.1855039 69.3344574 28.4419767 69.3344574 30.1553488zM66.9357364 30.1553488C66.9357364 29.1273256 66.7072868 28.2135271 66.2503876 27.6424031 65.7934884 26.9570543 65.1081395 26.6143798 64.1943411 26.6143798 63.6232171 26.6143798 63.052093 26.8428295 62.5951938 27.1855039 62.1382946 27.5281783 61.7956202 28.0993023 61.6813953 28.6704264 61.5671705 29.0131008 61.5671705 29.2415504 61.5671705 29.3557752L61.5671705 31.1833721C61.5671705 31.9829457 61.7956202 32.5540698 62.2525194 33.1251938 62.7094186 33.6963178 63.3947674 33.9247674 64.0801163 33.9247674 64.9939147 33.9247674 65.6792636 33.582093 66.1361628 32.8967442 66.7072868 32.2113953 66.9357364 31.2975969 66.9357364 30.1553488zM81.5565116 30.1553488C81.5565116 31.9829457 81.0996124 33.3536434 80.0715891 34.4958915 79.1577907 35.4096899 78.1297674 35.8665891 76.7590698 35.8665891 75.3883721 35.8665891 74.3603488 35.4096899 73.7892248 34.3816667L73.7892248 39.9786822 71.3905039 39.9786822 71.3905039 28.5562016C71.3905039 27.4139535 71.3905039 26.2717054 71.2762791 25.0152326L73.3323256 25.0152326 73.4465504 26.7286047C74.246124 25.4721318 75.3883721 24.7867829 76.9875194 24.7867829 78.2439922 24.7867829 79.2720155 25.2436822 80.0715891 26.2717054 81.0996124 27.1855039 81.5565116 28.4419767 81.5565116 30.1553488zM79.1577907 30.1553488C79.1577907 29.1273256 78.9293411 28.2135271 78.4724419 27.6424031 78.0155426 26.9570543 77.3301938 26.6143798 76.4163953 26.6143798 75.8452713 26.6143798 75.2741473 26.8428295 74.8172481 27.1855039 74.3603488 27.5281783 74.0176744 28.0993023 73.9034496 28.6704264 73.7892248 29.0131008 73.7892248 29.2415504 73.7892248 29.3557752L73.7892248 31.1833721C73.7892248 31.9829457 74.0176744 32.5540698 74.4745736 33.1251938 74.9314729 33.6963178 75.6168217 33.9247674 76.3021705 33.9247674 77.215969 33.9247674 77.9013178 33.582093 78.3582171 32.8967442 78.9293411 32.2113953 79.1577907 31.2975969 79.1577907 30.1553488zM95.2634884 31.4118217C95.2634884 32.6682946 94.8065891 33.6963178 94.0070155 34.4958915 93.0932171 35.4096899 91.7225194 35.7523643 90.0091473 35.7523643 88.41 35.7523643 87.1535271 35.4096899 86.2397287 34.8385659L86.8108527 32.8967442C87.838876 33.4678682 88.981124 33.8105426 90.2375969 33.8105426 91.1513953 33.8105426 91.8367442 33.582093 92.2936434 33.2394186 92.7505426 32.7825194 92.9789922 32.3256202 92.9789922 31.6402713 92.9789922 31.0691473 92.7505426 30.4980233 92.4078682 30.1553488 91.950969 29.6984496 91.2656202 29.3557752 90.3518217 29.0131008 87.7246512 28.0993023 86.4681783 26.6143798 86.4681783 24.7867829 86.4681783 23.5303101 86.9250775 22.6165116 87.838876 21.816938 88.7526744 21.0173643 89.8949225 20.6746899 91.4940698 20.6746899 92.8647674 20.6746899 93.8927907 20.9031395 94.8065891 21.3600388L94.2354651 23.3018605C93.4358915 22.8449612 92.522093 22.6165116 91.379845 22.6165116 90.5802713 22.6165116 89.8949225 22.8449612 89.4380233 23.1876357 89.0953488 23.5303101 88.8668992 23.9872093 88.8668992 24.5583333 88.8668992 25.1294574 89.0953488 25.5863566 89.5522481 26.0432558 89.8949225 26.3859302 90.6944961 26.7286047 91.7225194 27.1855039 92.9789922 27.6424031 93.8927907 28.3277519 94.5781395 29.0131008 94.920814 29.5842248 95.2634884 30.3837984 95.2634884 31.4118217zM103.030775 26.7286047L100.403605 26.7286047 100.403605 31.8687209C100.403605 33.1251938 100.860504 33.8105426 101.774302 33.8105426 102.231202 33.8105426 102.573876 33.8105426 102.802326 33.6963178L102.91655 35.5239147C102.459651 35.7523643 101.888527 35.7523643 101.088953 35.7523643 100.175155 35.7523643 99.3755814 35.5239147 98.9186822 34.9527907 98.3475581 34.3816667 98.1191085 33.4678682 98.1191085 32.0971705L98.1191085 26.7286047 96.5199612 26.7286047 96.5199612 24.9010078 98.1191085 24.9010078 98.1191085 22.959186 100.403605 22.2738372 100.403605 24.9010078 103.030775 24.9010078 103.030775 26.7286047zM114.79593 30.1553488C114.79593 31.7544961 114.339031 33.1251938 113.425233 34.1532171 112.397209 35.1812403 111.140736 35.7523643 109.541589 35.7523643 107.942442 35.7523643 106.685969 35.1812403 105.772171 34.1532171 104.858372 33.1251938 104.401473 31.8687209 104.401473 30.2695736 104.401473 28.6704264 104.858372 27.2997287 105.886395 26.2717054 106.800194 25.2436822 108.170891 24.6725581 109.770039 24.6725581 111.369186 24.6725581 112.625659 25.2436822 113.539457 26.2717054 114.339031 27.2997287 114.79593 28.5562016 114.79593 30.1553488zM112.282984 30.2695736C112.282984 29.2415504 112.054535 28.4419767 111.597636 27.7566279 111.140736 26.9570543 110.341163 26.500155 109.427364 26.500155 108.513566 26.500155 107.713992 26.9570543 107.257093 27.7566279 106.800194 28.4419767 106.571744 29.3557752 106.571744 30.2695736 106.571744 31.2975969 106.800194 32.0971705 107.257093 32.7825194 107.713992 33.582093 108.513566 34.0389922 109.427364 34.0389922 110.341163 34.0389922 111.026512 33.582093 111.597636 32.7825194 112.054535 32.0971705 112.282984 31.1833721 112.282984 30.2695736zM122.448992 26.9570543C122.220543 26.9570543 121.992093 26.8428295 121.649419 26.8428295 120.849845 26.8428295 120.164496 27.1855039 119.707597 27.7566279 119.364922 28.3277519 119.136473 29.0131008 119.136473 29.8126744L119.136473 35.4096899 116.737752 35.4096899 116.737752 28.0993023C116.737752 26.8428295 116.737752 25.8148062 116.623527 24.7867829L118.679574 24.7867829 118.793798 26.8428295 118.908023 26.8428295C119.136473 26.1574806 119.593372 25.5863566 120.050271 25.1294574 120.621395 24.7867829 121.192519 24.5583333 121.763643 24.5583333 121.992093 24.5583333 122.220543 24.5583333 122.334767 24.5583333L122.334767 26.9570543 122.448992 26.9570543zM132.957674 29.6984496C132.957674 30.1553488 132.957674 30.4980233 132.84345 30.7264729L125.761512 30.7264729C125.761512 31.7544961 126.104186 32.5540698 126.789535 33.1251938 127.360659 33.582093 128.160233 33.9247674 129.074031 33.9247674 130.102054 33.9247674 131.130078 33.8105426 131.929651 33.4678682L132.272326 35.0670155C131.244302 35.5239147 130.102054 35.7523643 128.731357 35.7523643 127.132209 35.7523643 125.761512 35.2954651 124.847713 34.2674419 123.933915 33.3536434 123.477016 31.9829457 123.477016 30.3837984 123.477016 28.7846512 123.933915 27.4139535 124.733488 26.3859302 125.647287 25.2436822 126.90376 24.6725581 128.502907 24.6725581 129.987829 24.6725581 131.244302 25.2436822 131.929651 26.3859302 132.729225 27.2997287 132.957674 28.4419767 132.957674 29.6984496zM130.787403 29.1273256C130.787403 28.4419767 130.673178 27.8708527 130.330504 27.2997287 129.873605 26.6143798 129.302481 26.2717054 128.502907 26.2717054 127.703333 26.2717054 127.132209 26.6143798 126.67531 27.1855039 126.332636 27.6424031 126.104186 28.3277519 125.989961 29.0131008L130.787403 29.0131008 130.787403 29.1273256zM52.0865116 11.765155C52.0865116 13.0216279 51.7438372 14.0496512 50.9442636 14.735 50.2589147 15.306124 49.2308915 15.6487984 47.8601938 15.6487984 47.174845 15.6487984 46.6037209 15.6487984 46.1468217 15.5345736L46.1468217 8.45263566C46.7179457 8.33841085 47.4032946 8.33841085 48.2028682 8.33841085 49.4593411 8.33841085 50.3731395 8.56686047 51.0584884 9.1379845 51.6296124 9.70910853 52.0865116 10.622907 52.0865116 11.765155zM50.8300388 11.765155C50.8300388 10.9655814 50.6015891 10.2802326 50.1446899 9.82333333 49.6877907 9.36643411 49.0024419 9.1379845 48.2028682 9.1379845 47.8601938 9.1379845 47.5175194 9.1379845 47.2890698 9.2522093L47.2890698 14.6207752C47.4032946 14.6207752 47.745969 14.6207752 48.0886434 14.6207752 49.0024419 14.6207752 49.6877907 14.3923256 50.1446899 13.9354264 50.6015891 13.4785271 50.8300388 12.6789535 50.8300388 11.765155zM58.4831008 12.9074031C58.4831008 13.7069767 58.2546512 14.3923256 57.7977519 14.8492248 57.3408527 15.4203488 56.6555039 15.6487984 55.8559302 15.6487984 55.0563566 15.6487984 54.4852326 15.4203488 54.0283333 14.8492248 53.5714341 14.3923256 53.3429845 13.7069767 53.3429845 12.9074031 53.3429845 12.1078295 53.5714341 11.4224806 54.0283333 10.9655814 54.4852326 10.3944574 55.1705814 10.1660078 55.970155 10.1660078 56.7697287 10.1660078 57.3408527 10.3944574 57.7977519 10.9655814 58.2546512 11.4224806 58.4831008 12.1078295 58.4831008 12.9074031zM57.3408527 12.9074031C57.3408527 12.4505039 57.2266279 11.9936047 56.9981783 11.6509302 56.7697287 11.194031 56.4270543 11.0798062 55.970155 11.0798062 55.5132558 11.0798062 55.1705814 11.3082558 54.9421318 11.6509302 54.7136822 11.9936047 54.5994574 12.4505039 54.5994574 12.9074031 54.5994574 13.3643023 54.7136822 13.8212016 54.9421318 14.163876 55.1705814 14.6207752 55.5132558 14.735 55.970155 14.735 56.4270543 14.735 56.7697287 14.5065504 56.9981783 14.0496512 57.2266279 13.8212016 57.3408527 13.3643023 57.3408527 12.9074031zM67.2784109 10.2802326L65.6792636 15.5345736 64.6512403 15.5345736 63.9658915 13.2500775C63.7374419 12.6789535 63.6232171 12.1078295 63.5089922 11.5367054 63.3947674 12.1078295 63.2805426 12.6789535 63.052093 13.2500775L62.3667442 15.5345736 61.3387209 15.5345736 59.6253488 10.2802326 60.7675969 10.2802326 61.3387209 12.7931783C61.4529457 13.3643023 61.5671705 13.9354264 61.6813953 14.5065504 61.7956202 14.0496512 61.909845 13.4785271 62.1382946 12.7931783L62.8236434 10.2802326 63.7374419 10.2802326 64.4227907 12.6789535C64.6512403 13.2500775 64.7654651 13.8212016 64.8796899 14.3923256 64.9939147 13.8212016 65.1081395 13.2500775 65.2223643 12.6789535L65.9077132 10.2802326 67.2784109 10.2802326zM73.2181008 15.5345736L72.0758527 15.5345736 72.0758527 12.5647287C72.0758527 11.6509302 71.7331783 11.194031 71.0478295 11.194031 70.705155 11.194031 70.4767054 11.3082558 70.2482558 11.5367054 70.0198062 11.765155 69.9055814 12.1078295 69.9055814 12.4505039L69.9055814 15.5345736 68.7633333 15.5345736 68.7633333 11.765155C68.7633333 11.3082558 68.7633333 10.8513566 68.7633333 10.2802326L69.7913566 10.2802326 69.7913566 11.0798062C69.9055814 10.8513566 70.134031 10.622907 70.3624806 10.3944574 70.705155 10.1660078 71.0478295 10.0517829 71.3905039 10.0517829 71.8474031 10.0517829 72.3043023 10.1660078 72.6469767 10.5086822 73.103876 10.8513566 73.2181008 11.4224806 73.2181008 12.2220543L73.2181008 15.5345736z"/>
        <polygon fill="#FFFFFF" points="76.416 15.535 75.274 15.535 75.274 7.882 76.416 7.882"/>
        <path fill="#FFFFFF" d="M83.2698837 12.9074031C83.2698837 13.7069767 83.0414341 14.3923256 82.5845349 14.8492248 82.1276357 15.4203488 81.4422868 15.6487984 80.6427132 15.6487984 79.8431395 15.6487984 79.2720155 15.4203488 78.8151163 14.8492248 78.3582171 14.3923256 78.1297674 13.7069767 78.1297674 12.9074031 78.1297674 12.1078295 78.3582171 11.4224806 78.8151163 10.9655814 79.2720155 10.5086822 79.9573643 10.1660078 80.756938 10.1660078 81.5565116 10.1660078 82.1276357 10.3944574 82.5845349 10.9655814 83.0414341 11.4224806 83.2698837 12.1078295 83.2698837 12.9074031zM82.1276357 12.9074031C82.1276357 12.4505039 82.0134109 11.9936047 81.7849612 11.6509302 81.5565116 11.194031 81.2138372 11.0798062 80.756938 11.0798062 80.3000388 11.0798062 79.9573643 11.3082558 79.7289147 11.6509302 79.5004651 11.9936047 79.3862403 12.4505039 79.3862403 12.9074031 79.3862403 13.3643023 79.5004651 13.8212016 79.7289147 14.163876 79.9573643 14.6207752 80.3000388 14.735 80.756938 14.735 81.2138372 14.735 81.5565116 14.5065504 81.7849612 14.0496512 82.0134109 13.8212016 82.1276357 13.3643023 82.1276357 12.9074031zM88.8668992 15.5345736L87.838876 15.5345736 87.7246512 14.9634496C87.3819767 15.4203488 86.8108527 15.6487984 86.2397287 15.6487984 85.7828295 15.6487984 85.3259302 15.5345736 85.0974806 15.1918992 84.869031 14.8492248 84.6405814 14.5065504 84.6405814 14.163876 84.6405814 13.4785271 84.869031 13.0216279 85.440155 12.6789535 86.0112791 12.3362791 86.6966279 12.2220543 87.7246512 12.2220543L87.7246512 12.1078295C87.7246512 11.4224806 87.3819767 11.0798062 86.6966279 11.0798062 86.1255039 11.0798062 85.7828295 11.194031 85.3259302 11.4224806L85.0974806 10.622907C85.5543798 10.2802326 86.1255039 10.1660078 86.9250775 10.1660078 88.2957752 10.1660078 88.981124 10.8513566 88.981124 12.3362791L88.981124 14.2781008C88.8668992 14.8492248 88.8668992 15.1918992 88.8668992 15.5345736zM87.7246512 13.7069767L87.7246512 12.9074031C86.4681783 12.9074031 85.7828295 13.2500775 85.7828295 13.9354264 85.7828295 14.163876 85.8970543 14.3923256 86.0112791 14.5065504 86.1255039 14.6207752 86.3539535 14.735 86.5824031 14.735 86.8108527 14.735 87.0393023 14.6207752 87.2677519 14.5065504 87.4962016 14.3923256 87.6104264 14.163876 87.7246512 13.9354264 87.7246512 13.9354264 87.7246512 13.8212016 87.7246512 13.7069767zM95.491938 15.5345736L94.4639147 15.5345736 94.4639147 14.735C94.1212403 15.4203488 93.5501163 15.6487984 92.7505426 15.6487984 92.0651938 15.6487984 91.6082946 15.4203488 91.1513953 14.9634496 90.6944961 14.5065504 90.5802713 13.8212016 90.5802713 13.0216279 90.5802713 12.2220543 90.8087209 11.5367054 91.2656202 10.9655814 91.7225194 10.5086822 92.2936434 10.2802326 92.8647674 10.2802326 93.5501163 10.2802326 94.0070155 10.5086822 94.3496899 10.9655814L94.3496899 7.99573643 95.491938 7.99573643 95.491938 14.163876C95.491938 14.6207752 95.491938 15.0776744 95.491938 15.5345736zM94.3496899 13.3643023L94.3496899 12.4505039C94.3496899 12.3362791 94.3496899 12.2220543 94.3496899 12.1078295 94.2354651 11.8793798 94.1212403 11.6509302 93.8927907 11.4224806 93.6643411 11.194031 93.4358915 11.194031 93.0932171 11.194031 92.6363178 11.194031 92.2936434 11.4224806 92.0651938 11.765155 91.8367442 12.1078295 91.7225194 12.5647287 91.7225194 13.1358527 91.7225194 13.7069767 91.8367442 14.0496512 92.0651938 14.3923256 92.2936434 14.735 92.6363178 14.9634496 93.0932171 14.9634496 93.4358915 14.9634496 93.7785659 14.8492248 94.0070155 14.5065504 94.2354651 14.0496512 94.3496899 13.7069767 94.3496899 13.3643023zM105.429496 12.9074031C105.429496 13.7069767 105.201047 14.3923256 104.744147 14.8492248 104.287248 15.4203488 103.601899 15.6487984 102.802326 15.6487984 102.002752 15.6487984 101.431628 15.4203488 100.974729 14.8492248 100.517829 14.3923256 100.28938 13.7069767 100.28938 12.9074031 100.28938 12.1078295 100.517829 11.4224806 100.974729 10.9655814 101.431628 10.3944574 102.116977 10.1660078 102.91655 10.1660078 103.716124 10.1660078 104.287248 10.3944574 104.744147 10.9655814 105.201047 11.4224806 105.429496 12.1078295 105.429496 12.9074031zM104.173023 12.9074031C104.173023 12.4505039 104.058798 11.9936047 103.830349 11.6509302 103.601899 11.194031 103.259225 11.0798062 102.802326 11.0798062 102.345426 11.0798062 102.002752 11.3082558 101.774302 11.6509302 101.545853 11.9936047 101.431628 12.4505039 101.431628 12.9074031 101.431628 13.3643023 101.545853 13.8212016 101.774302 14.163876 102.002752 14.6207752 102.345426 14.735 102.802326 14.735 103.259225 14.735 103.601899 14.5065504 103.830349 14.0496512 104.058798 13.8212016 104.173023 13.3643023 104.173023 12.9074031zM111.71186 15.5345736L110.569612 15.5345736 110.569612 12.5647287C110.569612 11.6509302 110.226938 11.194031 109.541589 11.194031 109.198915 11.194031 108.970465 11.3082558 108.742016 11.5367054 108.513566 11.765155 108.399341 12.1078295 108.399341 12.4505039L108.399341 15.5345736 107.257093 15.5345736 107.257093 11.765155C107.257093 11.3082558 107.257093 10.8513566 107.257093 10.2802326L108.285116 10.2802326 108.285116 11.0798062C108.399341 10.8513566 108.627791 10.622907 108.85624 10.3944574 109.198915 10.1660078 109.541589 10.0517829 109.884264 10.0517829 110.341163 10.0517829 110.798062 10.1660078 111.140736 10.5086822 111.597636 10.8513566 111.71186 11.4224806 111.71186 12.2220543L111.71186 15.5345736zM119.479147 11.194031L118.222674 11.194031 118.222674 13.7069767C118.222674 14.3923256 118.451124 14.6207752 118.908023 14.6207752 119.136473 14.6207752 119.250698 14.6207752 119.479147 14.6207752L119.479147 15.5345736C119.250698 15.6487984 118.908023 15.6487984 118.565349 15.6487984 118.10845 15.6487984 117.765775 15.5345736 117.537326 15.1918992 117.308876 14.9634496 117.194651 14.3923256 117.194651 13.8212016L117.194651 11.194031 116.395078 11.194031 116.395078 10.2802326 117.194651 10.2802326 117.194651 9.36643411 118.336899 9.02375969 118.336899 10.2802326 119.593372 10.2802326 119.593372 11.194031 119.479147 11.194031zM125.647287 15.5345736L124.505039 15.5345736 124.505039 12.5647287C124.505039 11.6509302 124.162364 11.194031 123.477016 11.194031 122.905891 11.194031 122.563217 11.4224806 122.334767 11.9936047 122.334767 12.1078295 122.334767 12.2220543 122.334767 12.4505039L122.334767 15.5345736 121.192519 15.5345736 121.192519 7.88151163 122.334767 7.88151163 122.334767 11.0798062C122.677442 10.5086822 123.248566 10.1660078 123.933915 10.1660078 124.390814 10.1660078 124.847713 10.2802326 125.076163 10.622907 125.418837 10.9655814 125.647287 11.6509302 125.647287 12.3362791L125.647287 15.5345736zM131.929651 12.6789535C131.929651 12.9074031 131.929651 13.0216279 131.929651 13.2500775L128.502907 13.2500775C128.502907 13.8212016 128.731357 14.163876 128.959806 14.3923256 129.302481 14.6207752 129.645155 14.735 130.102054 14.735 130.673178 14.735 131.130078 14.6207752 131.472752 14.5065504L131.701202 15.306124C131.244302 15.5345736 130.673178 15.6487984 129.987829 15.6487984 129.188256 15.6487984 128.502907 15.4203488 128.046008 14.9634496 127.589109 14.5065504 127.360659 13.8212016 127.360659 13.0216279 127.360659 12.2220543 127.589109 11.5367054 128.046008 11.0798062 128.502907 10.5086822 129.074031 10.2802326 129.873605 10.2802326 130.673178 10.2802326 131.244302 10.5086822 131.586977 11.0798062 131.815426 11.4224806 131.929651 11.9936047 131.929651 12.6789535zM130.901628 12.3362791C130.901628 11.9936047 130.787403 11.6509302 130.673178 11.4224806 130.444729 11.0798062 130.216279 10.9655814 129.75938 10.9655814 129.416705 10.9655814 129.074031 11.0798062 128.845581 11.4224806 128.617132 11.6509302 128.502907 11.9936047 128.502907 12.3362791L130.901628 12.3362791z"/>
    </g>
</svg>
