<svg xmlns="http://www.w3.org/2000/svg" width="20" height="20" viewBox="0 0 20 20">
  <path fill="#FFFFFF" d="M28.8946823,26.0463375 C26.3551706,26.0463375 20.662432,26.0463375 20.662432,26.0463375 L20.4296434,26.0463375 C20.4296434,26.0463375 14.5252788,26.0463375 12.1550679,26.0463375 C11.2239136,26.0463375 10.8853121,25.8558741 11.0334502,24.8823947 C11.2239136,23.7184518 11.9434419,22.025444 14.3771406,21.2847531 C17.0224653,20.3535989 17.191766,20.2477859 17.191766,20.2477859 C17.191766,20.2477859 17.8054813,19.3166316 18.1017577,19.2531438 C18.1440829,18.9991926 18.3557089,18.3431521 17.9324569,17.8140872 C17.4457172,17.1368841 16.9801401,15.4227137 17.1706034,14.3222586 C17.191766,13.8990067 16.7261889,13.2429662 16.7261889,11.7192592 C16.7261889,11.2748446 15.9431728,10.3225278 15.9431728,10.3225278 C15.9431728,10.3225278 17.2764164,9.98392621 17.3187416,9.87811322 C17.509205,9.3067231 17.0013027,8.86230856 17.0013027,8.86230856 C17.0013027,8.86230856 17.9747821,8.77765817 18.5461723,8.92579635 C18.7366356,8.81998336 17.6996684,8.22743064 17.9112943,8.14278025 C18.3557089,7.97347947 19.8582533,8.12161765 20.4931312,8.43905661 C20.4296434,8.05812986 20.2180174,7 20.3026678,7 C20.4719686,7.46557714 21.5724237,8.26975583 22.4189275,8.5448696 C23.286594,8.84114596 23.5828704,9.49718647 23.7944964,9.72997504 C24.4082117,10.364853 24.1542605,10.4071782 24.3658865,11.7192592 C24.3658865,13.2429662 24.1119353,13.8990067 24.1542605,14.3222586 C24.3658865,14.3434212 24.3658865,14.406909 24.3658865,15.4862015 C24.3658865,16.5654939 23.815659,16.8829329 23.5828704,16.8829329 C23.4558948,17.454323 22.5035779,18.0045506 22.9903177,19.2531438 C23.2654314,19.3166316 23.8791468,20.2477859 23.8791468,20.2477859 C23.8791468,20.2477859 24.0696101,20.3535989 26.6937722,21.2847531 C29.1274709,22.025444 29.8469992,23.7184518 30.0374625,24.8612321 C30.1432755,25.7288985 29.804674,26.0463375 28.8946823,26.0463375 Z" transform="translate(-11 -7)"/>
</svg>
