<svg xmlns="http://www.w3.org/2000/svg" width="25" height="25" viewBox="0 0 25 25">
  <g>
    <path fill="#FFFFFF" d="M4.8458278,0 L20.1541722,0 C21.5243618,0 22.2165846,0.133674373 22.9368674,0.518885858 C23.6000248,0.873546296 24.1264537,1.39997522 24.4811141,2.06313259 C24.8663256,2.78341544 25,3.47563815 25,4.8458278 L25,20.1541722 C25,21.5243618 24.8663256,22.2165846 24.4811141,22.9368674 C24.1264537,23.6000248 23.6000248,24.1264537 22.9368674,24.4811141 C22.2165846,24.8663256 21.5243618,25 20.1541722,25 L4.8458278,25 C3.47563815,25 2.78341544,24.8663256 2.06313259,24.4811141 C1.39997522,24.1264537 0.873546296,23.6000248 0.518885858,22.9368674 C0.133674373,22.2165846 0,21.5243618 0,20.1541722 L0,4.8458278 C0,3.47563815 0.133674373,2.78341544 0.518885858,2.06313259 C0.873546296,1.39997522 1.39997522,0.873546296 2.06313259,0.518885858 C2.78341544,0.133674373 3.47563815,0 4.8458278,0 Z"/>
    <path d="M4.8458278,2 C3.77756757,2 3.39725995,2.07344079 3.0063303,2.28251225 C2.69170989,2.45077309 2.45077309,2.69170989 2.28251225,3.0063303 C2.07344079,3.39725995 2,3.77756757 2,4.8458278 L2,20.1541722 C2,21.2224324 2.07344079,21.60274 2.28251225,21.9936697 C2.45077309,22.3082901 2.69170989,22.5492269 3.0063303,22.7174877 C3.39725995,22.9265592 3.77756757,23 4.8458278,23 L20.1541722,23 C21.2224324,23 21.60274,22.9265592 21.9936697,22.7174877 C22.3082901,22.5492269 22.5492269,22.3082901 22.7174877,21.9936697 C22.9265592,21.60274 23,21.2224324 23,20.1541722 L23,4.8458278 C23,3.77756757 22.9265592,3.39725995 22.7174877,3.0063303 C22.5492269,2.69170989 22.3082901,2.45077309 21.9936697,2.28251225 C21.60274,2.07344079 21.2224324,2 20.1541722,2 L4.8458278,2 Z M4.8458278,0 L20.1541722,0 C21.5243618,0 22.2165846,0.133674373 22.9368674,0.518885858 C23.6000248,0.873546296 24.1264537,1.39997522 24.4811141,2.06313259 C24.8663256,2.78341544 25,3.47563815 25,4.8458278 L25,20.1541722 C25,21.5243618 24.8663256,22.2165846 24.4811141,22.9368674 C24.1264537,23.6000248 23.6000248,24.1264537 22.9368674,24.4811141 C22.2165846,24.8663256 21.5243618,25 20.1541722,25 L4.8458278,25 C3.47563815,25 2.78341544,24.8663256 2.06313259,24.4811141 C1.39997522,24.1264537 0.873546296,23.6000248 0.518885858,22.9368674 C0.133674373,22.2165846 0,21.5243618 0,20.1541722 L0,4.8458278 C0,3.47563815 0.133674373,2.78341544 0.518885858,2.06313259 C0.873546296,1.39997522 1.39997522,0.873546296 2.06313259,0.518885858 C2.78341544,0.133674373 3.47563815,0 4.8458278,0 Z"/>
  </g>
</svg>
