<svg xmlns="http://www.w3.org/2000/svg" width="22" height="18" viewBox="0 0 22 18">
  <path d="M9.324,17.724 C8.904,17.724 8.54,17.36 8.54,16.94 C8.54,16.492 8.904,16.156 9.324,16.156 L12.432,16.156 C12.88,16.156 13.216,16.492 13.216,16.94 C13.216,17.36 12.88,17.724 12.432,17.724 L9.324,17.724 Z M18.648,10.892 C18.648,10.444 19.012,10.108 19.432,10.108 L20.188,10.108 C20.104,8.96 19.796,7.896 19.32,6.916 L18.676,7.28 C18.312,7.504 17.836,7.364 17.612,7 C17.416,6.636 17.528,6.16 17.892,5.936 L18.564,5.572 C18.228,5.096 17.864,4.676 17.472,4.284 C17.08,3.892 16.66,3.528 16.212,3.22 L15.82,3.864 C15.624,4.228 15.148,4.368 14.784,4.144 C14.392,3.948 14.28,3.472 14.504,3.08 L14.868,2.436 C13.888,1.988 12.796,1.68 11.676,1.596 L11.676,2.324 C11.676,2.772 11.312,3.108 10.892,3.108 C10.444,3.108 10.108,2.772 10.108,2.324 L10.108,1.596 C8.96,1.68 7.896,1.988 6.916,2.436 L7.28,3.08 C7.504,3.472 7.364,3.948 7,4.144 C6.636,4.368 6.16,4.228 5.936,3.864 L5.572,3.22 C5.096,3.528 4.676,3.892 4.284,4.284 C3.892,4.676 3.528,5.096 3.22,5.572 L3.864,5.936 C4.228,6.16 4.368,6.636 4.144,7 C3.948,7.364 3.472,7.504 3.08,7.28 L2.436,6.916 C1.988,7.896 1.68,8.96 1.596,10.108 L2.324,10.108 C2.772,10.108 3.108,10.444 3.108,10.892 C3.108,11.312 2.772,11.676 2.324,11.676 L1.596,11.676 C1.624,12.236 1.736,12.768 1.876,13.3 C2.016,13.86 2.212,14.364 2.436,14.868 L3.08,14.504 C3.472,14.28 3.948,14.392 4.144,14.784 C4.368,15.148 4.228,15.624 3.864,15.82 L2.52,16.604 C2.156,16.828 1.68,16.688 1.456,16.324 C0.98,15.512 0.616,14.644 0.364,13.72 C0.14,12.796 0,11.872 0,10.892 C0,7.868 1.232,5.152 3.192,3.192 C5.152,1.232 7.868,0 10.892,0 C13.888,0 16.604,1.232 18.592,3.192 C20.552,5.152 21.784,7.868 21.784,10.892 C21.784,11.872 21.644,12.796 21.392,13.72 C21.14,14.644 20.776,15.512 20.3,16.324 C20.104,16.688 19.628,16.828 19.264,16.604 L17.92,15.82 C17.528,15.624 17.416,15.148 17.612,14.784 C17.836,14.392 18.312,14.28 18.676,14.504 L19.32,14.868 C19.572,14.364 19.768,13.86 19.908,13.3 C20.048,12.768 20.132,12.236 20.188,11.676 L19.432,11.676 C19.012,11.676 18.648,11.312 18.648,10.892 Z M10.892,8.54 C11.256,8.54 11.592,8.624 11.9,8.792 L13.916,6.776 C14.224,6.468 14.7,6.468 15.008,6.776 C15.316,7.056 15.316,7.56 15.008,7.868 L12.992,9.884 C13.132,10.192 13.216,10.528 13.216,10.892 C13.216,11.536 12.964,12.124 12.544,12.544 C12.124,12.964 11.536,13.216 10.892,13.216 C10.248,13.216 9.66,12.964 9.24,12.544 C8.82,12.124 8.54,11.536 8.54,10.892 C8.54,10.248 8.82,9.66 9.24,9.24 C9.66,8.82 10.248,8.54 10.892,8.54 Z M11.424,10.332 C11.284,10.192 11.088,10.108 10.892,10.108 C10.668,10.108 10.472,10.192 10.332,10.332 C10.192,10.472 10.108,10.668 10.108,10.892 C10.108,11.088 10.192,11.284 10.332,11.424 C10.472,11.564 10.668,11.676 10.892,11.676 C11.088,11.676 11.284,11.564 11.424,11.424 C11.564,11.284 11.676,11.088 11.676,10.892 C11.676,10.668 11.564,10.472 11.424,10.332 Z"/>
</svg>
