<svg xmlns="http://www.w3.org/2000/svg" width="22" height="21" viewBox="0 0 22 21">
  <g>
    <path fill="#FFFFFF" d="M9.77142857,2.22044605e-16 L18.3571429,0 C20.0139971,2.66453526e-15 21.3571429,1.34314575 21.3571429,3 L21.3571429,11.5857143 C21.3571429,13.2425685 20.0139971,14.5857143 18.3571429,14.5857143 L9.77142857,14.5857143 C8.11457432,14.5857143 6.77142857,13.2425685 6.77142857,11.5857143 L6.77142857,3 C6.77142857,1.34314575 8.11457432,2.22044605e-16 9.77142857,2.22044605e-16 Z"/>
    <path d="M9.77142857,2.75 C9.63335738,2.75 9.52142857,2.86192881 9.52142857,3 L9.52142857,11.5857143 C9.52142857,11.7237855 9.63335738,11.8357143 9.77142857,11.8357143 L18.3571429,11.8357143 C18.495214,11.8357143 18.6071429,11.7237855 18.6071429,11.5857143 L18.6071429,3 C18.6071429,2.86192881 18.495214,2.75 18.3571429,2.75 L9.77142857,2.75 Z M9.77142857,1.25 L18.3571429,1.25 C19.3236412,1.25 20.1071429,2.03350169 20.1071429,3 L20.1071429,11.5857143 C20.1071429,12.5522126 19.3236412,13.3357143 18.3571429,13.3357143 L9.77142857,13.3357143 C8.80493026,13.3357143 8.02142857,12.5522126 8.02142857,11.5857143 L8.02142857,3 C8.02142857,2.03350169 8.80493026,1.25 9.77142857,1.25 Z"/>
    <path fill="#FFFFFF" d="M6.77142857,3 L15.3571429,3 C17.0139971,3 18.3571429,4.34314575 18.3571429,6 L18.3571429,14.5857143 C18.3571429,16.2425685 17.0139971,17.5857143 15.3571429,17.5857143 L6.77142857,17.5857143 C5.11457432,17.5857143 3.77142857,16.2425685 3.77142857,14.5857143 L3.77142857,6 C3.77142857,4.34314575 5.11457432,3 6.77142857,3 Z"/>
    <path d="M6.77142857,5.75 C6.63335738,5.75 6.52142857,5.86192881 6.52142857,6 L6.52142857,14.5857143 C6.52142857,14.7237855 6.63335738,14.8357143 6.77142857,14.8357143 L15.3571429,14.8357143 C15.495214,14.8357143 15.6071429,14.7237855 15.6071429,14.5857143 L15.6071429,6 C15.6071429,5.86192881 15.495214,5.75 15.3571429,5.75 L6.77142857,5.75 Z M6.77142857,4.25 L15.3571429,4.25 C16.3236412,4.25 17.1071429,5.03350169 17.1071429,6 L17.1071429,14.5857143 C17.1071429,15.5522126 16.3236412,16.3357143 15.3571429,16.3357143 L6.77142857,16.3357143 C5.80493026,16.3357143 5.02142857,15.5522126 5.02142857,14.5857143 L5.02142857,6 C5.02142857,5.03350169 5.80493026,4.25 6.77142857,4.25 Z"/>
    <path fill="#FFFFFF" d="M3.77142857,6 L12.3571429,6 C14.0139971,6 15.3571429,7.34314575 15.3571429,9 L15.3571429,17.5857143 C15.3571429,19.2425685 14.0139971,20.5857143 12.3571429,20.5857143 L3.77142857,20.5857143 C2.11457432,20.5857143 0.771428571,19.2425685 0.771428571,17.5857143 L0.771428571,9 C0.771428571,7.34314575 2.11457432,6 3.77142857,6 Z"/>
    <path d="M3.77142857,8.75 C3.63335738,8.75 3.52142857,8.86192881 3.52142857,9 L3.52142857,17.5857143 C3.52142857,17.7237855 3.63335738,17.8357143 3.77142857,17.8357143 L12.3571429,17.8357143 C12.495214,17.8357143 12.6071429,17.7237855 12.6071429,17.5857143 L12.6071429,9 C12.6071429,8.86192881 12.495214,8.75 12.3571429,8.75 L3.77142857,8.75 Z M3.77142857,7.25 L12.3571429,7.25 C13.3236412,7.25 14.1071429,8.03350169 14.1071429,9 L14.1071429,17.5857143 C14.1071429,18.5522126 13.3236412,19.3357143 12.3571429,19.3357143 L3.77142857,19.3357143 C2.80493026,19.3357143 2.02142857,18.5522126 2.02142857,17.5857143 L2.02142857,9 C2.02142857,8.03350169 2.80493026,7.25 3.77142857,7.25 Z"/>
  </g>
</svg>
