<svg xmlns="http://www.w3.org/2000/svg" width="20" height="18" viewBox="0 0 20 18">
  <g>
    <path d="M4.2819426,5.10685744 C3.98875782,5.10685744 3.92697093,5.11878904 3.86527629,5.15178369 C3.83301468,5.16903738 3.81217995,5.18987212 3.79492625,5.22213373 C3.7619316,5.28382836 3.75,5.34561525 3.75,5.63880004 L3.75,15.7180574 C3.75,16.0112422 3.7619316,16.0730291 3.79492625,16.1347237 C3.81217995,16.1669853 3.83301468,16.1878201 3.86527629,16.2050737 C3.92697093,16.2380684 3.98875782,16.25 4.2819426,16.25 L15.7180574,16.25 C16.0112422,16.25 16.0730291,16.2380684 16.1347237,16.2050737 C16.1669853,16.1878201 16.1878201,16.1669853 16.2050737,16.1347237 C16.2380684,16.0730291 16.25,16.0112422 16.25,15.7180574 L16.25,5.63880004 C16.25,5.34561525 16.2380684,5.28382836 16.2050737,5.22213373 C16.1878201,5.18987212 16.1669853,5.16903738 16.1347237,5.15178369 C16.0730291,5.11878904 16.0112422,5.10685744 15.7180574,5.10685744 L4.2819426,5.10685744 Z M4.2819426,4.60685744 L15.7180574,4.60685744 C16.2376892,4.60685744 16.5334125,4.66396422 16.842122,4.82906389 C17.1357863,4.98611728 17.75,5.11916819 17.75,5.63880004 L17.75,15.7180574 C17.75,16.2376892 17.6928932,16.5334125 17.5277935,16.842122 C17.3707402,17.1357863 17.1357863,17.3707402 16.842122,17.5277935 C16.5334125,17.6928932 16.2376892,17.75 15.7180574,17.75 L4.2819426,17.75 C3.76231076,17.75 3.46658754,17.6928932 3.157878,17.5277935 C2.86421369,17.3707402 2.62925985,17.1357863 2.47220645,16.842122 C2.30710679,16.5334125 2.25,16.2376892 2.25,15.7180574 L2.25,5.63880004 C2.25,5.11916819 2.86421369,4.98611728 3.157878,4.82906389 C3.46658754,4.66396422 3.76231076,4.60685744 4.2819426,4.60685744 Z"/>
    <path d="M2.2819426,1.75 C1.98875782,1.75 1.92697093,1.7619316 1.86527629,1.79492625 C1.83301468,1.81217995 1.81217995,1.83301468 1.79492625,1.86527629 C1.7619316,1.92697093 1.75,1.98875782 1.75,2.2819426 L1.75,3.7180574 C1.75,4.01124218 1.7619316,4.07302907 1.79492625,4.13472371 C1.81217995,4.16698532 1.83301468,4.18782005 1.86527629,4.20507375 C1.92697093,4.2380684 1.98875782,4.25 2.2819426,4.25 L17.7180574,4.25 C18.0112422,4.25 18.0730291,4.2380684 18.1347237,4.20507375 C18.1669853,4.18782005 18.1878201,4.16698532 18.2050737,4.13472371 C18.2380684,4.07302907 18.25,4.01124218 18.25,3.7180574 L18.25,2.2819426 C18.25,1.98875782 18.2380684,1.92697093 18.2050737,1.86527629 C18.1878201,1.83301468 18.1669853,1.81217995 18.1347237,1.79492625 C18.0730291,1.7619316 18.0112422,1.75 17.7180574,1.75 L2.2819426,1.75 Z M2.2819426,0.25 L17.7180574,0.25 C18.2376892,0.25 18.5334125,0.307106788 18.842122,0.472206453 C19.1357863,0.629259849 19.3707402,0.864213686 19.5277935,1.157878 C19.6928932,1.46658754 19.75,1.76231076 19.75,2.2819426 L19.75,3.7180574 C19.75,4.23768924 19.6928932,4.53341246 19.5277935,4.842122 C19.3707402,5.13578631 19.1357863,5.37074015 18.842122,5.52779355 C18.5334125,5.69289321 18.2376892,5.75 17.7180574,5.75 L2.2819426,5.75 C1.76231076,5.75 1.46658754,5.69289321 1.157878,5.52779355 C0.864213686,5.37074015 0.629259849,5.13578631 0.472206453,4.842122 C0.307106788,4.53341246 0.25,4.23768924 0.25,3.7180574 L0.25,2.2819426 C0.25,1.76231076 0.307106788,1.46658754 0.472206453,1.157878 C0.629259849,0.864213686 0.864213686,0.629259849 1.157878,0.472206453 C1.46658754,0.307106788 1.76231076,0.25 2.2819426,0.25 Z"/>
    <polygon points="6.75 11.75 6.75 10.25 13.25 10.25 13.25 11.75"/>
  </g>
</svg>
