<svg xmlns="http://www.w3.org/2000/svg" width="11" height="15" viewBox="0 0 11 15">
  <path d="M4.46438879,4.50483626 L4.46438879,6.63663157 L6.24405522,6.63663157 C6.53631629,6.63663157 6.80262482,6.51660104 6.99623672,6.3231366 C7.18984862,6.1295247 7.31002661,5.86306872 7.31002661,5.57080765 C7.31002661,5.27839912 7.18984862,5.01209059 6.99623672,4.81847869 C6.80262482,4.62486679 6.53646375,4.50483626 6.24405522,4.50483626 L4.46438879,4.50483626 Z M6.79171295,12.0959563 L6.79171295,14.1858736 L5.24517707,14.1858736 L5.24517707,12.0959563 L4.71138036,12.0959563 L4.71138036,14.1858736 L3.16484448,14.1858736 L3.16484448,12.100675 L0.935284749,12.100675 L1.22548141,10.5541391 L2.24780533,10.5541391 C2.61689184,10.5541391 2.91800037,10.253178 2.91800037,9.8840915 L2.91800037,5.16072791 C2.91800037,4.7916414 2.61689184,4.49068033 2.24780533,4.49068033 L0.917,4.49068033 L0.917,2.94399699 L3.16499194,2.94399699 L3.16499194,0.879 L4.71138036,0.879 L4.71138036,2.95830038 L5.24517707,2.95830038 L5.24517707,0.879 L6.79171295,0.879 L6.79171295,3.01654616 C7.29218423,3.12404279 7.74001313,3.375753 8.08963522,3.72522764 C8.56282684,4.1982718 8.85641503,4.85165667 8.85641503,5.5709551 C8.85641503,6.05137214 8.72547263,6.50244511 8.49720818,6.88996382 C8.79094383,7.0262147 9.05680998,7.213191 9.28315748,7.4395385 C9.77743554,7.93381656 10.084,8.61610313 10.084,9.36725242 L10.084,9.36739987 C10.084,10.1185492 9.77743554,10.8008357 9.28315748,11.2949663 C8.78902688,11.7892444 8.10659285,12.0961038 7.35544356,12.0961038 L6.79171295,12.0961038 L6.79171295,12.0959563 Z M4.46438879,8.18493694 L4.46438879,10.5494204 L7.35544356,10.5494204 C7.67970295,10.5494204 7.97520808,10.4162662 8.18975897,10.2015678 C8.40430986,9.98701694 8.53761158,9.69165926 8.53761158,9.36739987 L8.53761158,9.36725242 C8.53761158,9.04284558 8.40430986,8.7474879 8.18975897,8.53293701 C7.97520808,8.31838612 7.67970295,8.1850844 7.35544356,8.1850844 L4.46438879,8.1850844 L4.46438879,8.18493694 Z"/>
</svg>
