<svg xmlns="http://www.w3.org/2000/svg" width="9" height="14" viewBox="0 0 9 14">
  <path d="M8.02417153,5.91070439 L4.18652428,8.56881504 L0.299037448,5.87747801 L3.88748683,0.312058831 C4.00377917,0.129313723 4.30281662,0.129313723 4.41910896,0.312058831 L8.02417153,5.91070439 Z M4.38588258,9.77440299 L8.32320898,7.04983957 C8.30659579,7.09967915 8.30659579,7.14951872 8.27336941,7.18274511 L4.41910896,13.1634941 C4.36926938,13.2631732 4.25297704,13.3130128 4.15329789,13.3130128 C4.05361874,13.3130128 3.9539396,13.24656 3.88748683,13.1634941 L0.0498395747,7.18274511 C0.0166131916,7.13290553 0,7.06645277 0,7 L4.02039236,9.77440299 C4.07023194,9.80762938 4.1366847,9.82424257 4.20313747,9.82424257 C4.26959024,9.82424257 4.336043,9.80762938 4.38588258,9.77440299 Z"/>
</svg>
