<svg xmlns="http://www.w3.org/2000/svg" width="107" height="19" viewBox="0 0 107 19">
  <g fill-rule="evenodd">
    <path fill="currentColor" d="M0,0.671899529 L17.6373626,0.671899529 L17.6373626,18.3092622 L0,18.3092622 L0,0.671899529 Z M5.87912088,6.55102041 L5.87912088,12.4301413 L11.7582418,12.4301413 L11.7582418,6.55102041 L5.87912088,6.55102041 Z M1.95970696,2.63160649 L1.95970696,4.59131345 L3.91941392,4.59131345 L3.91941392,2.63160649 L1.95970696,2.63160649 Z M1.95970696,8.51072737 L1.95970696,10.4704343 L3.91941392,10.4704343 L3.91941392,8.51072737 L1.95970696,8.51072737 Z M1.95970696,14.3898482 L1.95970696,16.3495552 L3.91941392,16.3495552 L3.91941392,14.3898482 L1.95970696,14.3898482 Z M7.83882784,2.63160649 L7.83882784,4.59131345 L9.7985348,4.59131345 L9.7985348,2.63160649 L7.83882784,2.63160649 Z M7.83882784,14.3898482 L7.83882784,16.3495552 L9.7985348,16.3495552 L9.7985348,14.3898482 L7.83882784,14.3898482 Z M13.7179487,2.63160649 L13.7179487,4.59131345 L15.6776557,4.59131345 L15.6776557,2.63160649 L13.7179487,2.63160649 Z M13.7179487,8.51072737 L13.7179487,10.4704343 L15.6776557,10.4704343 L15.6776557,8.51072737 L13.7179487,8.51072737 Z M13.7179487,14.3898482 L13.7179487,16.3495552 L15.6776557,16.3495552 L15.6776557,14.3898482 L13.7179487,14.3898482 Z"/>
    <path d="M71.7460635,15.5171562 C70.566645,16.4254025 69.0894212,16.9654631 67.4861474,16.9654631 C63.6250179,16.9654631 60.494954,13.8332171 60.494954,9.96939585 C60.494954,6.10557459 63.6250179,2.97332859 67.4861474,2.97332859 C69.0894212,2.97332859 70.566645,3.51338921 71.7460635,4.42163552 L71.7460635,3.39692407 L74.8372261,3.39692407 L74.8372261,16.6880635 L71.7460635,16.6883366 L71.7460635,15.5171562 Z M31.3007308,16.9654631 C29.4981881,16.9654631 28.2791733,16.6239641 27.1558497,15.7432418 C26.032526,14.8625194 25.3642072,13.330625 25.3642072,12.3335453 L28.7341782,12.3335453 C29.0791596,13.4659865 29.9054833,14.2092579 31.4599665,14.2092579 C32.5411058,14.2092579 33.4988536,13.7737466 33.4988536,12.7717092 C33.4988536,11.8688774 32.6864024,11.5894414 32.0855548,11.4636239 C31.3502963,11.398456 30.3654096,11.2347394 29.1308947,10.9724741 C27.2791224,10.5790761 25.6939721,9.61447974 25.6644082,7.28998516 C25.6261479,4.28173696 27.8942101,2.97332859 31.0262266,2.97332859 C34.4451977,2.97332859 36.4293793,4.66854574 36.4293793,7.28998516 L32.995469,7.28998516 C32.995469,6.39005665 32.1231299,5.68537748 30.8704325,5.68537748 C29.8568876,5.68537748 28.8247351,6.15887444 28.8247351,6.98306093 C28.8247351,7.90437063 29.9430584,8.25354442 30.9413966,8.37012951 C31.6069555,8.4478529 32.5028885,8.60779629 33.6291958,8.84995968 C35.592304,9.20332503 36.7172093,10.6535056 36.7172093,12.5407677 C36.7172093,15.2332617 34.775197,16.9654631 31.3007308,16.9654631 Z M47.2617469,16.6883366 L47.2617469,9.46313301 C47.2617469,7.48832396 46.1228452,6.17377469 44.4807045,6.17377469 C42.8385638,6.17377469 41.7129837,7.28998516 41.7129837,9.4628599 L41.7129837,16.6880635 L38.6173457,16.6880635 L38.6173457,3.39692407 L41.1831657,3.39692407 L41.3626247,4.88917896 C42.0868098,3.67599179 43.5372628,3.07340749 45.0727676,3.07340749 C46.5756929,3.07340749 48.3360777,3.7388157 49.0870846,5.57207631 C50.2672381,3.79273513 51.8716331,3.07340749 53.5882202,3.07340749 C56.2629378,3.07340749 58.805133,4.46563905 58.805133,9.32806132 L58.805133,16.6880635 L55.7018732,16.6880635 L55.7018732,9.32806132 C55.7018732,7.28998516 54.7825702,6.17377469 53.1434325,6.17377469 C51.5042948,6.17377469 50.3380924,7.57130282 50.3380924,9.46340613 L50.3380924,16.6886097 L47.2617469,16.6883366 Z M67.6609273,13.9921345 C69.8810767,13.9921345 71.6808635,12.1910931 71.6808635,9.96939585 C71.6808635,7.74769862 69.8810767,5.94665717 67.6609273,5.94665717 C65.4407778,5.94665717 63.6409911,7.74769862 63.6409911,9.96939585 C63.6409911,12.1910931 65.4407778,13.9921345 67.6609273,13.9921345 Z M80.1996305,3.39692407 L80.1996305,5.11109182 C81.1652107,3.49350893 82.648995,3.07340749 84.5235376,3.07340749 C84.5235376,3.39692407 84.5235376,5.93477815 84.5235376,6.26297523 C82.8069506,6.26297523 80.9298305,7.14102593 80.3762365,8.65865547 L80.3762365,16.6880635 L77.1039924,16.6880635 L77.1039924,3.39692407 L80.1996305,3.39692407 Z M94.5033626,16.6883366 L93.0651417,16.6880635 C89.6319676,16.6880635 88.0919866,15.0848538 88.0919866,11.3230802 L88.0919866,6.26297523 L85.8316629,6.26297523 L85.8316629,3.39692407 L88.2073672,3.39692407 L88.2073672,0 L91.3115835,0 L91.3115835,3.39692407 L94.5033626,3.39692407 L94.5033626,6.26297523 L91.3115835,6.26297523 L91.3115835,11.3230802 C91.3115835,13.048502 91.9821253,13.6416157 93.3500306,13.6416157 L94.5033626,13.6418888 L94.5033626,16.6883366 Z M107,16.6883366 L96.1654287,16.6883366 L96.1654287,14.1831624 L102.538666,6.26297523 L96.1654287,6.26326429 L96.1654287,3.39692407 L107,3.39692407 L107,5.6656891 L100.456925,13.8219964 L107,13.8219964 L107,16.6883366 Z"/>
  </g>
</svg>
