<svg xmlns="http://www.w3.org/2000/svg" width="27" height="27" viewBox="0 0 27 27">
  <g fill="#395FFF" fill-rule="evenodd" transform="translate(1 1)">
    <path fill-rule="nonzero" d="M12.5,-1 C19.9522847,-1 26,5.04771525 26,12.5 C26,19.9522847 19.9522847,26 12.5,26 C5.04771525,26 -1,19.9522847 -1,12.5 C-1,5.04771525 5.04771525,-1 12.5,-1 Z M12.5,1 C6.15228475,1 1,6.15228475 1,12.5 C1,18.8477153 6.15228475,24 12.5,24 C18.8477153,24 24,18.8477153 24,12.5 C24,6.15228475 18.8477153,1 12.5,1 Z"/>
    <path d="M12.5,4 C7.808,4 4,7.808 4,12.5 C4,17.192 7.808,21 12.5,21 C17.192,21 21,17.192 21,12.5 C21,7.808 17.192,4 12.5,4 L12.5,4 Z"/>
  </g>
</svg>
