<svg xmlns="http://www.w3.org/2000/svg" width="23" height="20" viewBox="0 0 23 20">
  <path d="M0.406259301,9.58998074 L5.70594518,11.5654145 L7.75724334,18.1541557 C7.88852526,18.5759472 8.40518311,18.7319313 8.74799101,18.4519038 L11.7021992,16.0468028 C12.011785,15.7946322 12.4529448,15.7822351 12.7764036,16.0167582 L18.1047115,19.8803358 C18.4714685,20.1465078 18.991266,19.9458943 19.0831926,19.5031737 L22.9864565,0.751830904 C23.0868529,0.268200041 22.6112298,-0.135214606 22.1501367,0.0429383194 L0.400125997,8.42298064 C-0.136684145,8.62957386 -0.132084167,9.38856512 0.406259301,9.58998074 Z M7.42662904,10.5139257 L17.7841734,4.14278916 C17.9702169,4.02866336 18.1618097,4.28003181 18.0018327,4.42814012 L9.45397812,12.3637846 C9.15344622,12.64301 8.95966301,13.0169634 8.90475534,13.4227845 L8.61371546,15.5779026 C8.57494421,15.8655871 8.1704382,15.8940274 8.09077826,15.6156042 L6.97093915,11.6856659 C6.8427969,11.237476 7.02964363,10.7585852 7.42662904,10.5139257 Z"/>
</svg>
