<svg xmlns="http://www.w3.org/2000/svg" width="26" height="18" viewBox="0 0 26 18">
  <path d="M25.550719,2.8955153 C25.2324119,1.52210953 24.1014288,0.508849567 22.7399011,0.357700291 C19.515767,0.00022025676 16.2524484,-0.00164578368 13.0041595,0.00022025676 C9.75533382,-0.00164578368 6.49147846,0.00022025676 3.26734439,0.357700291 C1.90662186,0.508849567 0.776443841,1.52210953 0.458136757,2.8955153 C0.00509935464,4.85139226 0,6.9864091 0,9.00013332 C0,11.0138575 0,13.1486078 0.453037402,15.1042182 C0.770807712,16.4773574 1.90125412,17.4906173 3.26278181,17.6420332 C6.48664749,17.9997798 9.75023446,18.0016459 12.9990601,17.9997798 C16.2484226,18.0016459 19.5112044,17.9997798 22.7348017,17.6420332 C24.0955242,17.4908839 25.2267758,16.477624 25.5450829,15.1042182 C25.9983887,13.1483412 25.999999,11.013591 25.999999,9.00013332 C25.999999,6.9864091 26.0037564,4.85139226 25.550719,2.8955153 Z M10.6421569,12.0177157 C10.6421569,9.82381096 10.6421569,7.65283621 10.6421569,5.45872677 C12.73269,6.55547439 14.8093771,7.64485167 16.9131453,8.74835543 C14.8158928,9.84203208 12.7381876,10.9248579 10.6421569,12.0177157 Z"/>
</svg>
