<svg xmlns="http://www.w3.org/2000/svg" width="26" height="26" viewBox="0 0 26 26">
  <path fill-rule="evenodd" d="M17.0444444,26 L17.0444444,16.1777778 L21.3777778,16.1777778 L21.3777778,11.8444444 L17.0444444,11.8444444 L17.0444444,10.1180444 C17.0444444,9.42095556 17.4916444,8.95555556 17.875,8.95555556 L21.3777778,8.95555556 L21.3777778,4.62222222 L17.875,4.62222222 C15.1863111,4.62222222 13,7.24446667 13,10.1561778 L13,11.8444444 L9.82222222,11.8444444 L9.82222222,16.1777778 L13,16.1777778 L13,26 L2.5638852,26 C1.67236646,26 1.34908022,25.9071744 1.0231543,25.7328673 C0.697228371,25.5585602 0.441439796,25.3027716 0.267132704,24.9768457 C0.0928256111,24.6509198 4.01235366e-17,24.3276335 -6.90560205e-17,23.4361148 L6.90560205e-17,2.5638852 C-4.01235366e-17,1.67236646 0.0928256111,1.34908022 0.267132704,1.0231543 C0.441439796,0.697228371 0.697228371,0.441439796 1.0231543,0.267132704 C1.34908022,0.0928256111 1.67236646,6.01853049e-17 2.5638852,-1.03584031e-16 L23.4361148,1.03584031e-16 C24.3276335,-6.01853049e-17 24.6509198,0.0928256111 24.9768457,0.267132704 C25.3027716,0.441439796 25.5585602,0.697228371 25.7328673,1.0231543 C25.9071744,1.34908022 26,1.67236646 26,2.5638852 L26,23.4361148 C26,24.3276335 25.9071744,24.6509198 25.7328673,24.9768457 C25.5585602,25.3027716 25.3027716,25.5585602 24.9768457,25.7328673 C24.6509198,25.9071744 24.3276335,26 23.4361148,26 L17.0444444,26 Z"/>
</svg>
