<svg xmlns="http://www.w3.org/2000/svg" width="26" height="26" viewBox="0 0 26 26">
  <g fill-rule="evenodd">
    <rect width="26" height="26" rx="2"/>
    <path fill="#FFFFFF" fill-rule="nonzero" d="M7.86635731,21.7192297 L3.94602784,21.7192297 L3.94602784,10.0045708 L7.86635731,10.0045708 L7.86635731,21.7192297 Z M5.90658469,8.40415313 L5.88022274,8.40415313 C4.56556381,8.40415313 3.71335499,7.50507193 3.71335499,6.379471 C3.71335499,5.23118794 4.59059861,4.35647796 5.93131787,4.35647796 C7.27215777,4.35647796 8.09691879,5.23094664 8.12297912,6.379471 C8.12297912,7.50531323 7.2724594,8.40415313 5.90658469,8.40415313 Z M21.9979907,21.7192297 L18.0789281,21.7192297 L18.0789281,15.4514803 C18.0789281,13.87658 17.5110905,12.8019536 16.093819,12.8019536 C15.0096009,12.8019536 14.3659954,13.5269374 14.0833735,14.2268863 C13.9786497,14.4768724 13.95271,14.8265151 13.95271,15.1756752 L13.95271,21.7189884 L10.0343712,21.7189884 C10.0343712,21.7189884 10.0856473,11.1030858 10.0343712,10.0043898 L13.9533132,10.0043898 L13.9533132,11.6651926 C14.4735545,10.8671555 15.4032204,9.72876566 17.4843666,9.72876566 C20.0638561,9.72876566 21.9979907,11.402116 21.9979907,15.002 L21.9979907,21.7192297 Z M13.9279768,11.7451935 C13.9424068,11.7215335 13.9625568,11.6930635 13.9825768,11.6653735 L13.9825768,11.7451935 L13.9279768,11.7451935 Z"/>
  </g>
</svg>
