<svg xmlns="http://www.w3.org/2000/svg" width="10" height="12" viewBox="0 0 10 12">
  <path fill="#0C7186" fill-rule="evenodd" d="M14.3684211,6 L8.05263158,6 C7.47368421,6 7,6.47368421 7,7.05263158 L7,14.4210526 L8.05263158,14.4210526 L8.05263158,7.05263158 L14.3684211,7.05263158 L14.3684211,6 L14.3684211,6 Z M15.9473684,8.10526316 L10.1578947,8.10526316 C9.57894737,8.10526316 9.10526316,8.57894737 9.10526316,9.15789474 L9.10526316,16.5263158 C9.10526316,17.1052632 9.57894737,17.5789474 10.1578947,17.5789474 L15.9473684,17.5789474 C16.5263158,17.5789474 17,17.1052632 17,16.5263158 L17,9.15789474 C17,8.57894737 16.5263158,8.10526316 15.9473684,8.10526316 L15.9473684,8.10526316 Z M15.9473684,16.5263158 L10.1578947,16.5263158 L10.1578947,9.15789474 L15.9473684,9.15789474 L15.9473684,16.5263158 L15.9473684,16.5263158 Z" transform="translate(-7 -6)"/>
</svg>
