<?xml version="1.0" standalone="no"?>
<!DOCTYPE svg PUBLIC "-//W3C//DTD SVG 20010904//EN"
 "http://www.w3.org/TR/2001/REC-SVG-20010904/DTD/svg10.dtd">
<svg version="1.0" xmlns="http://www.w3.org/2000/svg"
 width="1000.000000pt" height="1000.000000pt" viewBox="0 0 1000.000000 1000.000000"
 preserveAspectRatio="xMidYMid meet">
<metadata>
Created by potrace 1.11, written by Peter Selinger 2001-2013
</metadata>
<g transform="translate(0.000000,1000.000000) scale(0.100000,-0.100000)"
fill="#000000" stroke="none">
<path d="M0 5000 l0 -5000 5000 0 5000 0 0 5000 0 5000 -5000 0 -5000 0 0
-5000z m2221 3868 c4 -125 0 -1080 -4 -1084 -5 -5 -935 -9 -1084 -5 l-23 1 0
555 0 555 555 0 555 0 1 -22z m3330 15 c1 -5 2 -254 3 -555 1 -484 0 -548 -14
-549 -96 -3 -1090 -3 -1091 1 -4 14 -5 1087 -1 1098 3 9 123 12 553 12 302 0
550 -3 550 -7z m3339 -548 c0 -522 -1 -555 -17 -556 -10 0 -260 -1 -556 -2
l-537 -2 -1 25 c-1 35 -1 1040 0 1068 l1 22 555 0 555 0 0 -555z m-2224 -3334
l-1 -1666 -1665 0 -1665 0 -1 1660 c0 941 3 1663 8 1666 5 3 755 6 1667 6
l1658 0 -1 -1666z m-4451 547 c10 -9 10 -1086 1 -1096 -4 -4 -255 -7 -557 -7
l-549 0 0 551 c0 303 2 553 4 555 8 8 1094 4 1101 -3z m6663 3 c10 -1 12 -115
10 -553 l-3 -553 -548 0 c-304 0 -551 4 -554 8 -7 12 -8 1081 -1 1093 5 7
1032 12 1096 5z m-6657 -3356 c0 -16 1 -266 1 -555 l1 -525 -557 -3 -556 -2 0
553 c0 305 2 556 4 558 2 2 252 4 555 4 l551 0 1 -30z m3325 22 c5 -3 9 -244
9 -554 l0 -548 -555 0 -555 0 0 552 -1 552 31 3 c54 5 1062 1 1071 -5z m3327
4 c16 -1 17 -34 17 -556 l0 -555 -555 0 -555 0 -1 23 c-1 30 -1 1048 0 1069 1
11 11 18 29 20 22 2 1001 1 1065 -1z"/>
</g>
</svg>
