<svg xmlns="http://www.w3.org/2000/svg" width="21" height="21" viewBox="0 0 21 21">
  <path fill="#191919" fill-rule="evenodd" d="M54.7666667,21 L54.7666667,13.0666667 L58.2666667,13.0666667 L58.2666667,9.56666667 L54.7666667,9.56666667 L54.7666667,8.17226667 C54.7666667,7.60923333 55.1278667,7.23333333 55.4375,7.23333333 L58.2666667,7.23333333 L58.2666667,3.73333333 L55.4375,3.73333333 C53.2658667,3.73333333 51.5,5.8513 51.5,8.20306667 L51.5,9.56666667 L48.9333333,9.56666667 L48.9333333,13.0666667 L51.5,13.0666667 L51.5,21 L43,21 C41.8954305,21 41,20.1045695 41,19 L41,2 C41,0.8954305 41.8954305,2.02906125e-16 43,0 L60,0 C61.1045695,-2.02906125e-16 62,0.8954305 62,2 L62,19 C62,20.1045695 61.1045695,21 60,21 L54.7666667,21 Z" transform="translate(-41)"/>
</svg>
