<svg xmlns="http://www.w3.org/2000/svg" width="21" height="21" viewBox="0 0 21 21">
  <path fill="#191919" d="M101.569629,5.34540748 C100.631737,3.70098299 99.359548,2.39908983 97.7527255,1.43943432 C96.1456637,0.479729862 94.3912314,0 92.4881848,0 C90.5853774,0 88.8303711,0.479876703 87.2236442,1.43943432 C85.6166781,2.39904088 84.3445365,3.70098299 83.4066454,5.34540748 C82.4688977,6.98978302 82,8.78545384 82,10.732371 C82,13.0710602 82.666779,15.1740694 84.0006718,17.0419371 C85.3344211,18.9099516 87.0574278,20.2025449 89.1695483,20.9198636 C89.4154051,20.9665591 89.5974061,20.9337156 89.7157427,20.8221653 C89.834127,20.7104682 89.8932475,20.5705776 89.8932475,20.4030809 C89.8932475,20.3751321 89.8909037,20.1236912 89.8863596,19.6484645 C89.8816721,19.1732377 89.8794718,18.7586564 89.8794718,18.4049162 L89.5653586,18.46052 C89.3650858,18.4980624 89.1124368,18.5139702 88.8074117,18.509467 C88.5025301,18.5051107 88.1860254,18.4724141 87.8583279,18.4116219 C87.5304869,18.3513681 87.2255575,18.2116243 86.9433005,17.9926843 C86.661187,17.7737442 86.4609141,17.4871593 86.3425297,17.1333702 L86.2059692,16.8117882 C86.1149448,16.5976938 85.9716399,16.3598602 85.7758633,16.0991683 C85.5800866,15.8382317 85.3821097,15.6613371 85.1818368,15.5681909 L85.0862205,15.4981477 C85.0225082,15.4515991 84.9633878,15.3954568 84.9087157,15.3303083 C84.8540915,15.2651598 84.8131951,15.1999624 84.785883,15.1346671 C84.7585231,15.0693228 84.7811955,15.0157258 84.8541394,14.9736803 C84.9270833,14.9316348 85.0589084,14.9112239 85.2501889,14.9112239 L85.5232143,14.9529757 C85.705311,14.9903223 85.9305522,15.1018725 86.1992249,15.2883118 C86.4677541,15.4746042 86.6884991,15.7167941 86.8615076,16.0147836 C87.0710121,16.3968642 87.3234219,16.6880011 87.6194546,16.8883413 C87.915248,17.0886815 88.213481,17.1886803 88.5138663,17.1886803 C88.8142517,17.1886803 89.0736928,17.1653815 89.2922854,17.1190287 C89.5106388,17.0724311 89.7155035,17.0023879 89.9067839,16.9092907 C89.9887203,16.2848244 90.211809,15.8050946 90.5758589,15.4697584 C90.0569766,15.4139588 89.5904705,15.3299168 89.1761013,15.2181707 C88.7619713,15.1062778 88.3340178,14.9246843 87.8925278,14.6729008 C87.4507987,14.4214599 87.0843572,14.1092267 86.7931078,13.7367398 C86.5018105,13.3640571 86.2627458,12.8747826 86.0762486,12.2693567 C85.8896557,11.6636862 85.7963354,10.9650162 85.7963354,10.1731512 C85.7963354,9.04565627 86.1560325,8.08619654 86.8752833,7.29423356 C86.5383542,6.44656886 86.5701625,5.49631118 86.9708039,4.44355841 C87.2348369,4.35961425 87.6263902,4.42260908 88.1452725,4.63215133 C88.6642504,4.84179147 89.0442283,5.02137813 89.2855889,5.170275 C89.5269495,5.31912292 89.7203345,5.44525943 89.866031,5.54755872 C90.7128977,5.30541776 91.5868374,5.1843228 92.4880892,5.1843228 C93.389341,5.1843228 94.263472,5.30541776 95.1103865,5.54755872 L95.6293166,5.2123205 C95.9841827,4.98863256 96.4032394,4.78364239 96.8854823,4.59730104 C97.3680122,4.41105759 97.7369887,4.3597611 97.9920293,4.44370526 C98.4015674,5.49650697 98.4380633,6.4467157 98.1010386,7.2943804 C98.8202415,8.08634338 99.1800821,9.04604784 99.1800821,10.173298 C99.1800821,10.9651631 99.086427,11.6660356 98.9001211,12.2763562 C98.713576,12.8867746 98.4724546,13.3755597 98.1766611,13.7437392 C97.8805327,14.1118699 97.5117475,14.4216556 97.0702576,14.6730476 C96.6286719,14.9246353 96.2005749,15.1062288 95.7864449,15.2181217 C95.3721236,15.3300147 94.9056174,15.4141057 94.3867352,15.4700032 C94.8599856,15.8890877 95.0966587,16.5506068 95.0966587,17.4542669 L95.0966587,20.4026893 C95.0966587,20.570186 95.1535789,20.7100277 95.2675148,20.8217738 C95.3813073,20.9333241 95.5610124,20.9661675 95.8068692,20.9194231 C97.9192767,20.2022022 99.6422834,18.9095601 100.975985,17.0415455 C102.309543,15.1736778 102.976561,13.0706686 102.976561,10.7319794 C102.976083,8.785307 102.506946,6.98978302 101.569629,5.34540748 Z" transform="translate(-82)"/>
</svg>
