<svg xmlns="http://www.w3.org/2000/svg" width="21" height="21" viewBox="0 0 21 21">
  <path fill="#000000" d="M276.08,-4.06785716e-13 L258.92,-4.06563672e-13 C257.859613,-4.06368882e-13 257,0.85961328 257,1.92 L257,19.08 C257,20.1403867 257.859613,21 258.92,21 L276.08,21 C277.140387,21 278,20.1403867 278,19.08 L278,1.92 C278,0.85961328 277.140387,-4.06758461e-13 276.08,-4.06563672e-13 Z M260.196388,17.5778737 L260.196388,8.09898675 L263.36827,8.09898675 L263.36827,17.5778737 L260.196388,17.5778737 Z M261.780111,6.80573651 L261.759119,6.80573651 C260.694242,6.80573651 260.005609,6.07248335 260.005609,5.16597409 C260.005609,4.23408029 260.715234,3.52621166 261.800226,3.52621166 C262.886096,3.52621166 263.553736,4.23408029 263.57385,5.16597409 C263.574728,6.07248335 262.886974,6.80573651 261.780111,6.80573651 Z M271.637878,17.5778737 L271.637878,12.5081238 C271.637878,11.2341096 271.172392,10.358255 270.024379,10.358255 C269.143254,10.358255 268.627877,10.9479845 268.401261,11.5202346 C268.318124,11.7144835 268.296253,11.9988519 268.296253,12.2840986 L268.296253,17.5778298 L265.122615,17.5778737 C265.122615,17.5778737 265.162843,8.98621606 265.122615,8.09894283 L268.296253,8.09894283 L268.296253,9.44296216 C268.712771,8.7980718 269.467017,7.87496157 271.151356,7.87496157 C273.240837,7.87496157 274.803612,9.23035563 274.803612,12.1423316 L274.803612,17.5778737 L271.637878,17.5778737 Z M268.329223,9.44388443 L268.329223,9.52850943 L268.276973,9.52850943 C268.284473,9.50113443 268.296848,9.47375943 268.329223,9.44388443 Z" transform="translate(-257)"/>
</svg>
