<svg xmlns="http://www.w3.org/2000/svg" width="117" height="20" viewBox="0 0 117 20" xmlns:xlink="http://www.w3.org/1999/xlink">
  <defs>
    <linearGradient id="a" x1="0%" x2="94.695%" y1="73.09%" y2="73.09%">
      <stop stop-color="#27D0B2" offset="0%"/>
      <stop stop-color="#5FB2E7" offset="28.847%"/>
      <stop stop-color="#496EFF" offset="100%"/>
    </linearGradient>
    <path id="b" d="M108.371332,50.9500617 C107.083002,51.9421785 105.469367,52.5321101 103.718042,52.5321101 C99.5003625,52.5321101 96.0812582,49.1106221 96.0812582,44.8900028 C96.0812582,40.6693835 99.5003625,37.2478956 103.718042,37.2478956 C105.469367,37.2478956 107.083002,37.8378272 108.371332,38.829944 L108.371332,37.7106073 L111.747943,37.7106073 L111.747943,52.2290944 L108.371332,52.2293928 L108.371332,50.9500617 Z M30,34.733945 L49.266055,34.733945 L49.266055,54 L30,54 L30,34.733945 Z M36.4220183,41.1559633 L36.4220183,47.5779817 L42.8440367,47.5779817 L42.8440367,41.1559633 L36.4220183,41.1559633 Z M32.1406728,36.8746177 L32.1406728,39.0152905 L34.2813456,39.0152905 L34.2813456,36.8746177 L32.1406728,36.8746177 Z M32.1406728,43.2966361 L32.1406728,45.4373089 L34.2813456,45.4373089 L34.2813456,43.2966361 L32.1406728,43.2966361 Z M32.1406728,49.7186544 L32.1406728,51.8593272 L34.2813456,51.8593272 L34.2813456,49.7186544 L32.1406728,49.7186544 Z M38.5626911,36.8746177 L38.5626911,39.0152905 L40.7033639,39.0152905 L40.7033639,36.8746177 L38.5626911,36.8746177 Z M38.5626911,49.7186544 L38.5626911,51.8593272 L40.7033639,51.8593272 L40.7033639,49.7186544 L38.5626911,49.7186544 Z M44.9847095,36.8746177 L44.9847095,39.0152905 L47.1253823,39.0152905 L47.1253823,36.8746177 L44.9847095,36.8746177 Z M44.9847095,43.2966361 L44.9847095,45.4373089 L47.1253823,45.4373089 L47.1253823,43.2966361 L44.9847095,43.2966361 Z M44.9847095,49.7186544 L44.9847095,51.8593272 L47.1253823,51.8593272 L47.1253823,49.7186544 L44.9847095,49.7186544 Z M64.1911438,52.5321101 C62.2221484,52.5321101 60.8905657,52.1590759 59.6635106,51.1970248 C58.4364556,50.2349737 57.706422,48.561619 57.706422,47.4724657 L61.3875873,47.4724657 C61.7644254,48.7094802 62.6670546,49.5213878 64.3650838,49.5213878 C65.5460592,49.5213878 66.5922486,49.0456599 66.5922486,47.9510911 C66.5922486,46.9648888 65.7047729,46.6596487 65.0484411,46.5222128 C64.2452864,46.4510271 63.169452,46.2721924 61.8209379,45.9857086 C59.7981669,45.555983 58.0666385,44.5023126 58.0343445,41.9631665 C57.9925512,38.6771267 60.4700537,37.2478956 63.891291,37.2478956 C67.6259812,37.2478956 69.7933887,39.0996547 69.7933887,41.9631665 L66.0423798,41.9631665 C66.0423798,40.9801356 65.0894859,40.210384 63.7211103,40.210384 C62.6139714,40.210384 61.4865064,40.7276053 61.4865064,41.6278999 C61.4865064,42.6342864 62.7080994,43.015704 63.7986276,43.143055 C64.5256463,43.2279556 65.5043128,43.4026687 66.7346269,43.6671942 C68.879015,44.0531905 70.1077979,45.6372855 70.1077979,47.6988237 C70.1077979,50.6399515 67.9864537,52.5321101 64.1911438,52.5321101 Z M81.626053,52.2293928 L81.626053,44.33699 C81.626053,42.1798206 80.3819813,40.7438815 78.5881999,40.7438815 C76.7944184,40.7438815 75.5648986,41.9631665 75.5648986,44.3366917 L75.5648986,52.2290944 L72.1833992,52.2290944 L72.1833992,37.7106073 L74.9861554,37.7106073 L75.1821862,39.3406619 C75.9732451,38.015445 77.5576377,37.3572161 79.234936,37.3572161 C80.8766465,37.3572161 82.799591,38.0840703 83.6199483,40.0866203 C84.9090812,38.1429688 86.6616313,37.3572161 88.5367337,37.3572161 C91.4584436,37.3572161 94.2353935,38.8780109 94.2353935,44.1894454 L94.2353935,52.2290944 L90.8455684,52.2290944 L90.8455684,44.1894454 C90.8455684,41.9631665 89.841374,40.7438815 88.0508728,40.7438815 C86.2603717,40.7438815 84.9864783,42.270462 84.9864783,44.3372884 L84.9864783,52.2296911 L81.626053,52.2293928 Z M103.908961,49.2842145 C106.334126,49.2842145 108.300112,47.3168589 108.300112,44.8900028 C108.300112,42.4631467 106.334126,40.4957912 103.908961,40.4957912 C101.483796,40.4957912 99.5178107,42.4631467 99.5178107,44.8900028 C99.5178107,47.3168589 101.483796,49.2842145 103.908961,49.2842145 Z M117.60553,37.7106073 L117.60553,39.5830669 C118.660275,37.8161111 120.281077,37.3572161 122.328721,37.3572161 C122.328721,37.7106073 122.328721,40.4828152 122.328721,40.8413191 C120.453618,40.8413191 118.403159,41.8004519 117.798444,43.4582244 L117.798444,52.2290944 L114.22403,52.2290944 L114.22403,37.7106073 L117.60553,37.7106073 Z M133.230116,52.2293928 L131.659085,52.2290944 C127.90888,52.2290944 126.226692,50.4778391 126.226692,46.3686909 L126.226692,40.8413191 L123.757643,40.8413191 L123.757643,37.7106073 L126.352727,37.7106073 L126.352727,34 L129.743597,34 L129.743597,37.7106073 L133.230116,37.7106073 L133.230116,40.8413191 L129.743597,40.8413191 L129.743597,46.3686909 C129.743597,48.2534438 130.476059,48.9013276 131.970281,48.9013276 L133.230116,48.9016259 L133.230116,52.2293928 Z M146.880734,52.2293928 L135.045662,52.2293928 L135.045662,49.4928825 L142.007425,40.8413191 L135.045662,40.8416348 L135.045662,37.7106073 L146.880734,37.7106073 L146.880734,40.1888776 L139.73345,49.0983652 L146.880734,49.0983652 L146.880734,52.2293928 Z"/>
  </defs>
  <g fill="none" fill-rule="evenodd" transform="translate(-30 -34)">
    <use fill="url(#a)" xlink:href="#b"/>
    <use fill="#000000" xlink:href="#b"/>
  </g>
</svg>
