<svg xmlns="http://www.w3.org/2000/svg" width="25" height="22" viewBox="0 0 25 22">
  <g fill="none">
    <path fill="#C1C2C5" d="M24.3683376,21.0873083 L16.677665,17.4094531 L16.6197335,0.737250055 C16.618401,0.348047672 17.0268401,0.0915881704 17.3794416,0.260246745 L24.6705584,3.74804546 C24.8541244,3.83584639 24.9708756,4.02060075 24.9708756,4.22321827 L24.9708756,20.7104145 C24.9708122,21.0185067 24.6473985,21.2208087 24.3683376,21.0873083 Z"/>
    <path fill="#79797C" d="M16.677665,17.4094531 L8.35406091,13.4283028 L16.3672589,0.304115648 C16.5088198,0.0722732289 16.8041878,-0.0148964908 17.0499365,0.102634297 L24.4429569,3.63922534 C24.7255711,3.77442993 24.8290609,4.1227932 24.6656726,4.38903642 L16.677665,17.4094531 Z"/>
    <path fill="#3D3C3E" d="M16.677665,17.4094531 L8.35406091,13.4283028 L0.724682741,1.0693913 C0.512119289,0.725067755 0.881979695,0.317371 1.24803299,0.492467888 L8.35406091,3.89170823 L16.677665,17.4094531 Z"/>
    <path fill="#010002" d="M7.75152284,21.0872452 L0.23819797,17.4931512 C0.0925761421,17.4234659 0,17.2769627 0,17.1162573 L0,0.539555948 C0,0.241247407 0.313261421,0.045257559 0.58356599,0.174591922 L8.35406091,3.89170823 L8.35406091,20.7103514 C8.35406091,21.0184436 8.03058376,21.2207455 7.75152284,21.0872452 Z"/>
  </g>
</svg>
