<svg xmlns="http://www.w3.org/2000/svg" width="22" height="23" viewBox="0 0 22 23">
  <path fill="#010002" fill-rule="evenodd" d="M115.293771,6.73729809 C114.364821,5.8084089 113.283584,5.12873387 112.133818,4.69072108 C112.80388,2.71966351 115.179555,2.00222877 115.179555,2.00222877 C115.179555,2.00222877 109.636313,-0.87506217 103.51438,0.272833425 C101.473736,0.597567049 99.5168491,1.85118987 98.0853523,3.50506577 C94.9786998,7.09223954 95.3898744,12.49188 99.006688,15.5730734 C99.5625351,16.048846 100.803673,16.7889365 100.826516,16.8266962 C100.011781,18.8959291 97.4076757,19.4623249 97.4076757,19.4623249 C97.4076757,19.4623249 100.849359,21.6146292 105.471266,22.1734731 C106.697176,22.324512 107.999229,22.3622717 109.346968,22.2187848 C111.486598,22.0450901 113.618615,20.9122984 115.24047,19.318838 C118.750683,15.8600474 118.78114,10.2262966 115.293771,6.73729809 Z M113.709987,17.9443841 C112.40032,19.2282147 110.443433,20.0438247 108.935793,20.1571039 C107.869785,20.2628311 106.727633,20.277935 105.631168,20.142 C104.016927,19.9456494 102.851932,19.5000847 101.70978,19.0696238 C102.28847,18.51078 102.867161,17.7404816 103.103205,17.0759104 C103.255492,16.6832093 103.240263,16.2451965 103.057519,15.8600474 C101.83161,13.3376978 102.364614,10.3169199 104.382415,8.35341428 C105.844369,6.92609671 107.854556,6.25397366 109.895201,6.50318784 C111.395226,6.68443449 112.758194,7.34145366 113.824202,8.40627788 C116.413079,11.0041469 116.321707,15.3993787 113.709987,17.9443841 Z" transform="translate(-96)"/>
</svg>
