<svg xmlns="http://www.w3.org/2000/svg" width="22" height="19" viewBox="0 0 22 19">
  <path fill="#191919" d="M0.381530474,10.0062428 L5.35862677,11.8614327 L7.28506331,18.0491202 C7.40835416,18.4452374 7.89356327,18.5917268 8.2155046,18.3287444 L10.9898914,16.0700409 C11.2806329,15.8332198 11.6949395,15.8215773 11.9987094,16.0418251 L17.0026856,19.6702284 C17.3471183,19.9201986 17.8352759,19.7317964 17.9216069,19.316024 L21.5872809,1.70606728 C21.6815662,1.25187482 21.234894,0.873015849 20.8018675,1.04032468 L0.375770502,8.91027747 C-0.128364241,9.10429545 -0.124044261,9.81708724 0.381530474,10.0062428 Z M6.97457336,10.8739476 L16.7016585,4.89061938 C16.8763776,4.78344037 17.0563082,5.01950814 16.9060689,5.15860116 L8.87851858,12.6112064 C8.59627993,12.8734354 8.41429222,13.2246265 8.36272675,13.6057454 L8.08940234,15.6296824 C8.05299109,15.8998557 7.67310718,15.9265648 7.59829611,15.6650891 L6.54662112,11.9743645 C6.42627883,11.5534557 6.60175228,11.1037148 6.97457336,10.8739476 Z" transform="translate(0 -1)"/>
</svg>
