<svg xmlns="http://www.w3.org/2000/svg" width="24" height="19" viewBox="0 0 24 19">
  <path fill="#010002" d="M192,3.24799897 C191.116665,3.62947504 190.16886,3.88818774 189.173015,4.00368926 C190.18984,3.41024382 190.968194,2.46895613 191.337097,1.35078522 C190.383291,1.90035384 189.330466,2.29941121 188.20866,2.51573768 C187.310345,1.58175004 186.032578,1 184.615321,1 C181.896336,1 179.691745,3.14862639 179.691745,5.79713509 C179.691745,6.17276346 179.735235,6.5396394 179.819235,6.89046285 C175.728013,6.69018887 172.100203,4.77982737 169.67216,1.87696306 C169.247728,2.58441942 169.006276,3.40875324 169.006276,4.28869747 C169.006276,5.95353225 169.876121,7.42248838 171.195888,8.28190836 C170.389024,8.25561284 169.63016,8.03928637 168.965805,7.67971049 L168.965805,7.7396398 C168.965805,10.0636588 170.663495,12.0032588 172.914557,12.4447024 C172.502125,12.5528656 172.067222,12.6127949 171.6173,12.6127949 C171.299378,12.6127949 170.991926,12.5821041 170.690475,12.5236271 C171.317339,14.4310839 173.135028,15.8181723 175.288639,15.8562014 C173.604441,17.1424649 171.480829,17.9069076 169.174276,17.9069076 C168.776864,17.9069076 168.385412,17.8835168 168,17.8411306 C170.179102,19.2048664 172.766125,20 175.546601,20 C184.6034,20 189.553996,12.688815 189.553996,6.3481943 L189.537486,5.72700098 C190.504782,5.05459256 191.341607,4.20977271 192,3.24799897 Z" transform="translate(-168 -1)"/>
</svg>
