<svg xmlns="http://www.w3.org/2000/svg" width="26" height="19" viewBox="0 0 26 19">
  <path fill="#000000" d="M236.731012,5.10226717 C236.731012,5.10226717 237,7.3045539 237,9.50679172 L237,11.536353 C237,13.6954461 236.731012,15.8977328 236.731012,15.8977328 C236.731012,15.8977328 236.462074,17.7545686 235.7,18.5750024 C234.713777,19.6113554 233.593086,19.654549 233.1,19.6977426 C229.468988,20 224,20 224,20 C224,20 217.231012,19.9568064 215.168988,19.7409851 C214.586223,19.6114043 213.286223,19.6545979 212.3,18.5750514 C211.537977,17.7546175 211.268988,15.8977817 211.268988,15.8977817 C211.268988,15.8977817 211,13.7386886 211,11.5364019 L211,9.50684064 C211,7.3045539 211.268988,5.10226717 211.268988,5.10226717 C211.268988,5.10226717 211.493086,3.24548034 212.3,2.42499755 C213.286223,1.38864459 214.406914,1.34545099 214.9,1.30225739 C218.531012,1.0431936 224,1 224,1 C224,1 229.468988,1.0431936 233.1,1.30225739 C233.593086,1.34545099 234.713777,1.34545099 235.7,2.42499755 C236.462023,3.24543142 236.731012,5.10226717 236.731012,5.10226717 Z M221.4,6.72467228 L221.4,14.6639723 L227.962752,10.7858137 L221.4,6.72467228 Z" transform="translate(-211 -1)"/>
</svg>
