<?xml version="1.0" encoding="UTF-8" standalone="no"?>
<svg
   xmlns:dc="http://purl.org/dc/elements/1.1/"
   xmlns:cc="http://creativecommons.org/ns#"
   xmlns:rdf="http://www.w3.org/1999/02/22-rdf-syntax-ns#"
   xmlns:svg="http://www.w3.org/2000/svg"
   xmlns="http://www.w3.org/2000/svg"
   viewBox="0 0 135.17059 23.129664"
   height="23.129663"
   width="135.17059"
   xml:space="preserve"
   id="svg2"
   version="1.1"><metadata
     id="metadata8"><rdf:RDF><cc:Work
         rdf:about=""><dc:format>image/svg+xml</dc:format><dc:type
           rdf:resource="http://purl.org/dc/dcmitype/StillImage" /><dc:title></dc:title></cc:Work></rdf:RDF></metadata><defs
     id="defs6"><clipPath
       id="clipPath18"
       clipPathUnits="userSpaceOnUse"><path
         id="path16"
         d="M 0,235 H 837 V 0 H 0 Z" /></clipPath></defs><g
     transform="matrix(1.3333333,0,0,-1.3333333,-133.33333,109.79686)"
     id="g10"><g
       transform="matrix(0.15914906,0,0,0.15914906,84.085094,54.655647)"
       id="g12"><g
         clip-path="url(#clipPath18)"
         id="g14"><g
           transform="translate(737,74.6494)"
           id="g20"><path
             id="path22"
             style="fill:#000000;fill-opacity:1;fill-rule:nonzero;stroke:none"
             d="M 0,0 H -64.501 V 14.914 L -26.56,62.065 -64.501,62.063 V 79.128 H 0 V 65.621 L -38.953,17.064 H 0 Z m -74.396,0 -8.562,0.002 c -20.438,0 -29.606,9.544 -29.606,31.939 v 30.124 h -13.457 v 17.063 h 14.143 v 20.223 h 18.481 V 79.128 h 19.001 V 62.065 H -93.397 V 31.941 c 0,-10.272 3.992,-13.802 12.135,-13.802 l 6.866,-0.002 z M -159.55,79.128 V 68.923 c 5.748,9.63 14.582,12.131 25.741,12.131 V 62.065 c -10.218,0 -21.394,-5.227 -24.689,-14.262 V 0.002 h -19.481 v 79.126 z m -74.646,-63.076 c 13.217,0 23.931,10.721 23.931,23.948 0,13.227 -10.714,23.949 -23.931,23.949 -13.217,0 -23.932,-10.722 -23.932,-23.949 0,-13.227 10.715,-23.948 23.932,-23.948 M -355.638,0 v 43.014 c 0,11.757 -6.78,19.583 -16.556,19.583 -9.776,0 -16.477,-6.646 -16.477,-19.581 V 0.002 h -18.43 v 79.126 h 15.276 l 1.068,-8.884 c 4.311,7.222 12.946,10.81 22.088,10.81 8.947,0 19.427,-3.962 23.898,-14.875 7.025,10.592 16.577,14.875 26.796,14.875 15.923,0 31.058,-8.288 31.058,-37.236 V 0.002 h -18.475 v 43.816 c 0,12.133 -5.472,18.779 -15.231,18.779 -9.758,0 -16.701,-8.321 -16.701,-19.585 V -0.001 Z m -95.02,-1.649 c -10.731,0 -17.988,2.033 -24.676,7.276 C -482.021,10.87 -486,19.99 -486,25.926 h 20.063 c 2.053,-6.742 6.973,-11.167 16.227,-11.167 6.436,0 12.138,2.593 12.138,8.558 0,5.375 -4.837,7.038 -8.414,7.787 -4.377,0.388 -10.241,1.363 -17.59,2.924 -11.024,2.342 -20.461,8.085 -20.637,21.923 -0.227,17.909 13.275,25.698 31.921,25.698 20.354,0 32.166,-10.091 32.166,-25.698 h -20.443 c 0,5.358 -5.193,9.553 -12.651,9.553 -6.034,0 -12.178,-2.819 -12.178,-7.726 0,-5.484 6.657,-7.563 12.601,-8.257 3.962,-0.463 9.296,-1.415 16.001,-2.856 11.687,-2.104 18.383,-10.737 18.383,-21.973 0,-16.029 -11.561,-26.341 -32.245,-26.341 m -104.675,3.667 h 11.667 v 11.666 h -11.667 z m 0,35 h 11.667 v 11.667 h -11.667 z m 0,34.999 h 11.667 v 11.667 h -11.667 z m -35,-69.999 h 11.667 v 11.666 h -11.667 z m 0,69.999 h 11.667 v 11.667 h -11.667 z m -35,-69.999 h 11.667 v 11.666 h -11.667 z m 0,35 h 11.667 v 11.667 h -11.667 z m 0,34.999 h 11.667 v 11.667 h -11.667 z M -602,25.351 h 35 v 35 h -35 z m -35,70 h 105 v -105 H -637 Z M -209.876,6.973 c -7.021,-5.408 -15.816,-8.622 -25.36,-8.622 -22.987,0 -41.621,18.647 -41.621,41.649 0,23.002 18.634,41.649 41.621,41.649 9.544,0 18.339,-3.214 25.36,-8.622 v 6.101 h 18.402 V 0.002 L -209.876,0 Z" /></g></g></g></g></svg>