<svg xmlns="http://www.w3.org/2000/svg" width="12" height="7" viewBox="0 0 12 7">
  <path fill="#78797B" fill-rule="evenodd" d="M89.3545455,309.181818 C88.9072727,307.910909 87.6963636,307 86.2727273,307 C84.4672727,307 83,308.467273 83,310.272727 C83,312.078182 84.4672727,313.545455 86.2727273,313.545455 C87.6963636,313.545455 88.9072727,312.634545 89.3545455,311.363636 L91.7272727,311.363636 L91.7272727,313.545455 L93.9090909,313.545455 L93.9090909,311.363636 L95,311.363636 L95,309.181818 L89.3545455,309.181818 L89.3545455,309.181818 Z M86.2727273,311.363636 C85.6727273,311.363636 85.1818182,310.872727 85.1818182,310.272727 C85.1818182,309.672727 85.6727273,309.181818 86.2727273,309.181818 C86.8727273,309.181818 87.3636364,309.672727 87.3636364,310.272727 C87.3636364,310.872727 86.8727273,311.363636 86.2727273,311.363636 L86.2727273,311.363636 Z" transform="translate(-83 -307)"/>
</svg>
