<svg xmlns="http://www.w3.org/2000/svg" width="13" height="13" viewBox="0 0 13 13">
  <g fill="#0C7186" fill-rule="evenodd">
    <path d="M10.0566038 6.9738266L10.0566038 3.9245283C10.0566038 3.38266402 9.61733598 2.94339623 9.0754717 2.94339623 8.53360742 2.94339623 8.09433962 3.38266402 8.09433962 3.9245283L8.09433962 8.14432224C7.85225746 8.26807343 7.6069203 8.38636421 7.35849057 8.49903213L7.35849057 5.1509434C7.35849057 4.60907911 6.91922277 4.16981132 6.37735849 4.16981132 5.83549421 4.16981132 5.39622642 4.60907911 5.39622642 5.1509434L5.39622642 9.2498653C5.15318429 9.32639777 4.90785863 9.39778074 4.66037736 9.46388627L4.66037736 6.62264151C4.66037736 6.08077723 4.22110957 5.64150943 3.67924528 5.64150943 3.137381 5.64150943 2.69811321 6.08077723 2.69811321 6.62264151L2.69811321 9.81132075C2.69811321 9.83054419 2.69866606 9.84963851 2.69975674 9.86858866 2.1552454 9.94877519 1.60259152 10.0039372 1.04300099 10.0328689.383190897 9.01579277 0 7.8026459 0 6.5 0 2.91014913 2.91014913 0 6.5 0 9.46311819 0 11.9631484 1.98271539 12.7457667 4.69382231 11.9292105 5.54024607 11.0283117 6.30475861 10.0566038 6.9738266zM2.41269252 11.5543779C6.60406612 10.8866876 10.3003411 8.73401056 12.9452636 5.65260085 12.9813738 5.92995546 13 6.21280254 13 6.5 13 10.0898509 10.0898509 13 6.5 13 4.95139101 13 3.52926996 12.4584407 2.41269252 11.5543779z"/>
  </g>
</svg>
