<svg xmlns="http://www.w3.org/2000/svg" width="13" height="13" viewBox="0 0 13 13">
  <path fill="#E18F9C" fill-rule="evenodd" d="M6.5,64 C2.925,64 0,66.925 0,70.5 C0,74.075 2.925,77 6.5,77 C10.075,77 13,74.075 13,70.5 C13,66.925 10.075,64 6.5,64 L6.5,64 Z M1.3,70.5 C1.3,67.64 3.64,65.3 6.5,65.3 C7.67,65.3 8.775,65.69 9.685,66.405 L2.405,73.685 C1.69,72.775 1.3,71.67 1.3,70.5 L1.3,70.5 Z M6.5,75.7 C5.33,75.7 4.225,75.31 3.315,74.595 L10.595,67.315 C11.31,68.225 11.7,69.33 11.7,70.5 C11.7,73.36 9.36,75.7 6.5,75.7 L6.5,75.7 Z" transform="translate(0 -64)"/>
</svg>
